M48
METRIC,LZ,000.000
;FILE_FORMAT=3:3
;TYPE=PLATED
;Layer: PTH_Through_Via
;EasyEDA v6.5.40, 2024-08-19 02:38:51
;a67cddfb3fce44daa9051d46cbbcc19f,10
;Gerber Generator version 0.2
;Holesize 1 = 0.306 mm
T01C0.306
;Holesize 2 = 0.310 mm
T02C0.310
%
G05
G90
T01
X008000Y011750
X005322Y089928
X005322Y085428
X005322Y080928
X009821Y098928
X009821Y089928
X009821Y085428
X009821Y080928
X014322Y098928
X014322Y085428
X014322Y080928
X018821Y089928
X018821Y085428
X018821Y080928
X001072Y020187
X001072Y015687
X001072Y011187
X005572Y069687
X005572Y065187
X005572Y060687
X005572Y056187
X005572Y051687
X010072Y074187
X010072Y069687
X010072Y065187
X010072Y060687
X010072Y056187
X010072Y047187
X010072Y038187
X010072Y033687
X010072Y029187
X010072Y020187
X010072Y006687
X014572Y074187
X014572Y069687
X014572Y051687
X014572Y047187
X014572Y042687
X014572Y038187
X014572Y033687
X014572Y029187
X014572Y020187
X014572Y006687
X019072Y065187
X019072Y060687
X019072Y015687
X019072Y011187
T02
X017000Y013024
X015000Y009750
X019000Y021250
X012750Y013250
X012000Y095000
X014500Y044750
X007781Y014219
M30
