G04 Layer: BottomSilkscreenLayer*
G04 EasyEDA v6.5.40, 2024-08-19 02:38:51*
G04 a67cddfb3fce44daa9051d46cbbcc19f,10*
G04 Gerber Generator version 0.2*
G04 Scale: 100 percent, Rotated: No, Reflected: No *
G04 Dimensions in millimeters *
G04 leading zeros omitted , absolute positions ,4 integer and 5 decimal *
%FSLAX45Y45*%
%MOMM*%

%ADD10C,0.2032*%

%LPD*%
D10*
X669952Y5499988D02*
G01*
X863914Y5499988D01*
X669952Y5499988D02*
G01*
X669952Y5416862D01*
X679188Y5389153D01*
X688423Y5379915D01*
X706897Y5370680D01*
X734606Y5370680D01*
X753079Y5379915D01*
X762314Y5389153D01*
X771552Y5416862D01*
X771552Y5499988D01*
X669952Y5309720D02*
G01*
X679188Y5300484D01*
X669952Y5291246D01*
X660714Y5300484D01*
X669952Y5309720D01*
X734606Y5300484D02*
G01*
X863914Y5300484D01*
X762314Y5119451D02*
G01*
X743844Y5137924D01*
X734606Y5156395D01*
X734606Y5184104D01*
X743844Y5202577D01*
X762314Y5221051D01*
X790023Y5230286D01*
X808497Y5230286D01*
X836206Y5221051D01*
X854679Y5202577D01*
X863914Y5184104D01*
X863914Y5156395D01*
X854679Y5137924D01*
X836206Y5119451D01*
X734606Y5012309D02*
G01*
X743844Y5030782D01*
X762314Y5049253D01*
X790023Y5058491D01*
X808497Y5058491D01*
X836206Y5049253D01*
X854679Y5030782D01*
X863914Y5012309D01*
X863914Y4984600D01*
X854679Y4966126D01*
X836206Y4947653D01*
X808497Y4938417D01*
X790023Y4938417D01*
X762314Y4947653D01*
X743844Y4966126D01*
X734606Y4984600D01*
X734606Y5012309D01*
X734606Y4624382D02*
G01*
X863914Y4624382D01*
X762314Y4624382D02*
G01*
X743844Y4642853D01*
X734606Y4661326D01*
X734606Y4689035D01*
X743844Y4707509D01*
X762314Y4725982D01*
X790023Y4735217D01*
X808497Y4735217D01*
X836206Y4725982D01*
X854679Y4707509D01*
X863914Y4689035D01*
X863914Y4661326D01*
X854679Y4642853D01*
X836206Y4624382D01*
X734606Y4563422D02*
G01*
X826970Y4563422D01*
X854679Y4554184D01*
X863914Y4535713D01*
X863914Y4508004D01*
X854679Y4489531D01*
X826970Y4461822D01*
X734606Y4461822D02*
G01*
X863914Y4461822D01*
X669952Y4290024D02*
G01*
X863914Y4290024D01*
X762314Y4290024D02*
G01*
X743844Y4308497D01*
X734606Y4326971D01*
X734606Y4354680D01*
X743844Y4373153D01*
X762314Y4391624D01*
X790023Y4400862D01*
X808497Y4400862D01*
X836206Y4391624D01*
X854679Y4373153D01*
X863914Y4354680D01*
X863914Y4326971D01*
X854679Y4308497D01*
X836206Y4290024D01*
X669952Y4229064D02*
G01*
X679188Y4219829D01*
X669952Y4210593D01*
X660714Y4219829D01*
X669952Y4229064D01*
X734606Y4219829D02*
G01*
X863914Y4219829D01*
X734606Y4103451D02*
G01*
X743844Y4121924D01*
X762314Y4140395D01*
X790023Y4149633D01*
X808497Y4149633D01*
X836206Y4140395D01*
X854679Y4121924D01*
X863914Y4103451D01*
X863914Y4075742D01*
X854679Y4057269D01*
X836206Y4038795D01*
X808497Y4029560D01*
X790023Y4029560D01*
X762314Y4038795D01*
X743844Y4057269D01*
X734606Y4075742D01*
X734606Y4103451D01*
X734606Y3826360D02*
G01*
X863914Y3826360D01*
X771552Y3826360D02*
G01*
X743844Y3798651D01*
X734606Y3780177D01*
X734606Y3752469D01*
X743844Y3733995D01*
X771552Y3724760D01*
X863914Y3724760D01*
X771552Y3724760D02*
G01*
X743844Y3697051D01*
X734606Y3678577D01*
X734606Y3650869D01*
X743844Y3632395D01*
X771552Y3623160D01*
X863914Y3623160D01*
X734606Y3451364D02*
G01*
X863914Y3451364D01*
X762314Y3451364D02*
G01*
X743844Y3469835D01*
X734606Y3488309D01*
X734606Y3516017D01*
X743844Y3534491D01*
X762314Y3552964D01*
X790023Y3562200D01*
X808497Y3562200D01*
X836206Y3552964D01*
X854679Y3534491D01*
X863914Y3516017D01*
X863914Y3488309D01*
X854679Y3469835D01*
X836206Y3451364D01*
X669952Y3390404D02*
G01*
X863914Y3390404D01*
X734606Y3298040D02*
G01*
X826970Y3390404D01*
X790023Y3353457D02*
G01*
X863914Y3288804D01*
X790023Y3227844D02*
G01*
X790023Y3117006D01*
X771552Y3117006D01*
X753079Y3126244D01*
X743844Y3135480D01*
X734606Y3153953D01*
X734606Y3181662D01*
X743844Y3200133D01*
X762314Y3218606D01*
X790023Y3227844D01*
X808497Y3227844D01*
X836206Y3218606D01*
X854679Y3200133D01*
X863914Y3181662D01*
X863914Y3153953D01*
X854679Y3135480D01*
X836206Y3117006D01*
X734606Y3056046D02*
G01*
X863914Y3056046D01*
X790023Y3056046D02*
G01*
X762314Y3046811D01*
X743844Y3028337D01*
X734606Y3009864D01*
X734606Y2982155D01*
X1094945Y5474980D02*
G01*
X1288907Y5401089D01*
X1094945Y5327197D02*
G01*
X1288907Y5401089D01*
X1215016Y5266237D02*
G01*
X1215016Y5155402D01*
X1196545Y5155402D01*
X1178072Y5164637D01*
X1168836Y5173875D01*
X1159598Y5192346D01*
X1159598Y5220055D01*
X1168836Y5238529D01*
X1187307Y5257002D01*
X1215016Y5266237D01*
X1233490Y5266237D01*
X1261198Y5257002D01*
X1279672Y5238529D01*
X1288907Y5220055D01*
X1288907Y5192346D01*
X1279672Y5173875D01*
X1261198Y5155402D01*
X1159598Y5094442D02*
G01*
X1288907Y5094442D01*
X1215016Y5094442D02*
G01*
X1187307Y5085204D01*
X1168836Y5066733D01*
X1159598Y5048260D01*
X1159598Y5020551D01*
X1187307Y4857991D02*
G01*
X1168836Y4867226D01*
X1159598Y4894935D01*
X1159598Y4922644D01*
X1168836Y4950355D01*
X1187307Y4959591D01*
X1205781Y4950355D01*
X1215016Y4931882D01*
X1224254Y4885700D01*
X1233490Y4867226D01*
X1251963Y4857991D01*
X1261198Y4857991D01*
X1279672Y4867226D01*
X1288907Y4894935D01*
X1288907Y4922644D01*
X1279672Y4950355D01*
X1261198Y4959591D01*
X1094945Y4797031D02*
G01*
X1104181Y4787795D01*
X1094945Y4778557D01*
X1085707Y4787795D01*
X1094945Y4797031D01*
X1159598Y4787795D02*
G01*
X1288907Y4787795D01*
X1159598Y4671415D02*
G01*
X1168836Y4689889D01*
X1187307Y4708362D01*
X1215016Y4717597D01*
X1233490Y4717597D01*
X1261198Y4708362D01*
X1279672Y4689889D01*
X1288907Y4671415D01*
X1288907Y4643706D01*
X1279672Y4625235D01*
X1261198Y4606762D01*
X1233490Y4597524D01*
X1215016Y4597524D01*
X1187307Y4606762D01*
X1168836Y4625235D01*
X1159598Y4643706D01*
X1159598Y4671415D01*
X1159598Y4536564D02*
G01*
X1288907Y4536564D01*
X1196545Y4536564D02*
G01*
X1168836Y4508855D01*
X1159598Y4490384D01*
X1159598Y4462675D01*
X1168836Y4444202D01*
X1196545Y4434964D01*
X1288907Y4434964D01*
X1131890Y4231764D02*
G01*
X1122654Y4213293D01*
X1094945Y4185584D01*
X1288907Y4185584D01*
X1242728Y4115386D02*
G01*
X1251963Y4124624D01*
X1261198Y4115386D01*
X1251963Y4106151D01*
X1242728Y4115386D01*
X1094945Y3989773D02*
G01*
X1104181Y4017482D01*
X1131890Y4035955D01*
X1178072Y4045191D01*
X1205781Y4045191D01*
X1251963Y4035955D01*
X1279672Y4017482D01*
X1288907Y3989773D01*
X1288907Y3971300D01*
X1279672Y3943591D01*
X1251963Y3925117D01*
X1205781Y3915882D01*
X1178072Y3915882D01*
X1131890Y3925117D01*
X1104181Y3943591D01*
X1094945Y3971300D01*
X1094945Y3989773D01*
M02*
