G04 Layer: TopPasteMaskLayer*
G04 EasyEDA v6.5.40, 2024-08-19 02:38:51*
G04 a67cddfb3fce44daa9051d46cbbcc19f,10*
G04 Gerber Generator version 0.2*
G04 Scale: 100 percent, Rotated: No, Reflected: No *
G04 Dimensions in millimeters *
G04 leading zeros omitted , absolute positions ,4 integer and 5 decimal *
%FSLAX45Y45*%
%MOMM*%

%AMMACRO1*4,1,4,-1.5999,-0.8,-1.5999,0.8,1.5999,0.8,1.5999,-0.8,-1.5999,-0.8,0*%
%AMMACRO2*4,1,4,-1.5999,-0.8001,-1.5999,0.8001,1.5999,0.8001,1.5999,-0.8001,-1.5999,-0.8001,0*%
%ADD10R,0.8000X0.9000*%
%ADD11MACRO1*%
%ADD12MACRO2*%

%LPD*%
G36*
X1052474Y8390229D02*
G01*
X1052474Y8065262D01*
X1087475Y8065262D01*
X1087475Y8390229D01*
G37*
G36*
X1247495Y8390229D02*
G01*
X1247495Y8065262D01*
X1282496Y8065262D01*
X1282496Y8390229D01*
G37*
G36*
X1117498Y8390229D02*
G01*
X1117498Y8065262D01*
X1152499Y8065262D01*
X1152499Y8390229D01*
G37*
G36*
X1182471Y8390229D02*
G01*
X1182471Y8065262D01*
X1217472Y8065262D01*
X1217472Y8390229D01*
G37*
G36*
X1312519Y8390229D02*
G01*
X1312519Y8065262D01*
X1347520Y8065262D01*
X1347520Y8390229D01*
G37*
G36*
X788619Y8317230D02*
G01*
X783183Y8316823D01*
X777748Y8315858D01*
X772464Y8314385D01*
X767384Y8312403D01*
X762508Y8309864D01*
X757885Y8306917D01*
X753618Y8303463D01*
X749655Y8299653D01*
X746150Y8295436D01*
X743051Y8290915D01*
X740460Y8286089D01*
X738327Y8281060D01*
X736701Y8275828D01*
X735634Y8270443D01*
X735076Y8265007D01*
X734974Y8092236D01*
X735279Y8086750D01*
X736092Y8081365D01*
X737463Y8076031D01*
X739292Y8070900D01*
X741680Y8065922D01*
X744575Y8061248D01*
X747877Y8056880D01*
X751586Y8052866D01*
X755700Y8049259D01*
X760171Y8046059D01*
X764895Y8043316D01*
X769924Y8041030D01*
X775106Y8039303D01*
X780440Y8038084D01*
X785876Y8037423D01*
X791362Y8037271D01*
X796848Y8037677D01*
X802233Y8038642D01*
X807516Y8040116D01*
X812596Y8042097D01*
X817473Y8044637D01*
X822096Y8047583D01*
X826414Y8050987D01*
X830326Y8054848D01*
X833831Y8059013D01*
X836930Y8063585D01*
X839571Y8068360D01*
X841705Y8073440D01*
X843280Y8078673D01*
X844397Y8084058D01*
X844905Y8089493D01*
X845007Y8262264D01*
X844702Y8267700D01*
X843889Y8273135D01*
X842568Y8278469D01*
X840689Y8283600D01*
X838301Y8288528D01*
X835456Y8293252D01*
X832154Y8297621D01*
X828395Y8301634D01*
X824280Y8305241D01*
X819861Y8308441D01*
X815086Y8311184D01*
X810107Y8313420D01*
X804875Y8315198D01*
X799541Y8316417D01*
X794105Y8317077D01*
G37*
G36*
X1608632Y8317230D02*
G01*
X1603146Y8316823D01*
X1597761Y8315858D01*
X1592478Y8314385D01*
X1587398Y8312403D01*
X1582470Y8309864D01*
X1577898Y8306917D01*
X1573580Y8303463D01*
X1569669Y8299653D01*
X1566164Y8295436D01*
X1563065Y8290915D01*
X1560423Y8286089D01*
X1558290Y8281060D01*
X1556715Y8275828D01*
X1555597Y8270443D01*
X1555038Y8265007D01*
X1554988Y8092236D01*
X1555292Y8086750D01*
X1556105Y8081365D01*
X1557426Y8076031D01*
X1559306Y8070900D01*
X1561693Y8065922D01*
X1564538Y8061248D01*
X1567840Y8056880D01*
X1571599Y8052866D01*
X1575714Y8049259D01*
X1580134Y8046059D01*
X1584909Y8043316D01*
X1589887Y8041030D01*
X1595120Y8039303D01*
X1600454Y8038084D01*
X1605889Y8037423D01*
X1611376Y8037271D01*
X1616862Y8037677D01*
X1622247Y8038642D01*
X1627530Y8040116D01*
X1632610Y8042097D01*
X1637487Y8044637D01*
X1642110Y8047583D01*
X1646377Y8050987D01*
X1650339Y8054848D01*
X1653844Y8059013D01*
X1656943Y8063585D01*
X1659534Y8068360D01*
X1661668Y8073440D01*
X1663293Y8078673D01*
X1664360Y8084058D01*
X1664919Y8089493D01*
X1665020Y8262264D01*
X1664716Y8267700D01*
X1663903Y8273135D01*
X1662531Y8278469D01*
X1660702Y8283600D01*
X1658315Y8288528D01*
X1655419Y8293252D01*
X1652117Y8297621D01*
X1648409Y8301634D01*
X1644294Y8305241D01*
X1639824Y8308441D01*
X1635099Y8311184D01*
X1630070Y8313420D01*
X1624888Y8315198D01*
X1619554Y8316417D01*
X1614119Y8317077D01*
G37*
G36*
X788619Y7892237D02*
G01*
X783183Y7891830D01*
X777748Y7890865D01*
X772464Y7889392D01*
X767384Y7887360D01*
X762508Y7884871D01*
X757885Y7881924D01*
X753618Y7878470D01*
X749655Y7874660D01*
X746150Y7870444D01*
X743051Y7865922D01*
X740460Y7861096D01*
X738327Y7856067D01*
X736701Y7850835D01*
X735634Y7845450D01*
X735076Y7839964D01*
X734974Y7707223D01*
X735279Y7701788D01*
X736092Y7696352D01*
X737463Y7691018D01*
X739292Y7685887D01*
X741680Y7680959D01*
X744575Y7676286D01*
X747877Y7671917D01*
X751586Y7667853D01*
X755700Y7664246D01*
X760171Y7661046D01*
X764895Y7658303D01*
X769924Y7656068D01*
X775106Y7654290D01*
X780440Y7653070D01*
X785876Y7652410D01*
X791362Y7652258D01*
X796848Y7652664D01*
X802233Y7653629D01*
X807516Y7655102D01*
X812596Y7657134D01*
X817473Y7659624D01*
X822096Y7662570D01*
X826414Y7666024D01*
X830326Y7669834D01*
X833831Y7674051D01*
X836930Y7678572D01*
X839571Y7683398D01*
X841705Y7688427D01*
X843280Y7693659D01*
X844397Y7699044D01*
X844905Y7704531D01*
X845007Y7837220D01*
X844702Y7842707D01*
X843889Y7848142D01*
X842568Y7853476D01*
X840689Y7858607D01*
X838301Y7863535D01*
X835456Y7868208D01*
X832154Y7872577D01*
X828395Y7876641D01*
X824280Y7880248D01*
X819861Y7883448D01*
X815086Y7886192D01*
X810107Y7888427D01*
X804875Y7890205D01*
X799541Y7891424D01*
X794105Y7892084D01*
G37*
G36*
X1608632Y7892237D02*
G01*
X1603146Y7891830D01*
X1597761Y7890865D01*
X1592478Y7889392D01*
X1587398Y7887360D01*
X1582470Y7884871D01*
X1577898Y7881924D01*
X1573580Y7878470D01*
X1569669Y7874660D01*
X1566164Y7870444D01*
X1563065Y7865922D01*
X1560423Y7861096D01*
X1558290Y7856067D01*
X1556715Y7850835D01*
X1555597Y7845450D01*
X1555038Y7839964D01*
X1554988Y7707223D01*
X1555292Y7701788D01*
X1556105Y7696352D01*
X1557426Y7691018D01*
X1559306Y7685887D01*
X1561693Y7680959D01*
X1564538Y7676286D01*
X1567840Y7671917D01*
X1571599Y7667853D01*
X1575714Y7664246D01*
X1580134Y7661046D01*
X1584909Y7658303D01*
X1589887Y7656068D01*
X1595120Y7654290D01*
X1600454Y7653070D01*
X1605889Y7652410D01*
X1611376Y7652258D01*
X1616862Y7652664D01*
X1622247Y7653629D01*
X1627530Y7655102D01*
X1632610Y7657134D01*
X1637487Y7659624D01*
X1642110Y7662570D01*
X1646377Y7666024D01*
X1650339Y7669834D01*
X1653844Y7674051D01*
X1656943Y7678572D01*
X1659534Y7683398D01*
X1661668Y7688427D01*
X1663293Y7693659D01*
X1664360Y7699044D01*
X1664919Y7704531D01*
X1665020Y7837220D01*
X1664716Y7842707D01*
X1663903Y7848142D01*
X1662531Y7853476D01*
X1660702Y7858607D01*
X1658315Y7863535D01*
X1655419Y7868208D01*
X1652117Y7872577D01*
X1648409Y7876641D01*
X1644294Y7880248D01*
X1639824Y7883448D01*
X1635099Y7886192D01*
X1630070Y7888427D01*
X1624888Y7890205D01*
X1619554Y7891424D01*
X1614119Y7892084D01*
G37*
G36*
X1140002Y1059992D02*
G01*
X1140002Y940003D01*
X1259992Y940003D01*
X1259992Y1059992D01*
G37*
G36*
X1262329Y1179982D02*
G01*
X1262329Y1119987D01*
X1287322Y1119987D01*
X1287322Y1179982D01*
G37*
G36*
X1212342Y1179982D02*
G01*
X1212342Y1119987D01*
X1237335Y1119987D01*
X1237335Y1179982D01*
G37*
G36*
X1162354Y1179982D02*
G01*
X1162354Y1119987D01*
X1187348Y1119987D01*
X1187348Y1179982D01*
G37*
G36*
X1112367Y1179982D02*
G01*
X1112367Y1119987D01*
X1137361Y1119987D01*
X1137361Y1179982D01*
G37*
G36*
X1020013Y1087272D02*
G01*
X1020013Y1062278D01*
X1080008Y1062278D01*
X1080008Y1087272D01*
G37*
G36*
X1020013Y1037285D02*
G01*
X1020013Y1012291D01*
X1080008Y1012291D01*
X1080008Y1037285D01*
G37*
G36*
X1020013Y987298D02*
G01*
X1020013Y962304D01*
X1080008Y962304D01*
X1080008Y987298D01*
G37*
G36*
X1020013Y937310D02*
G01*
X1020013Y912266D01*
X1080008Y912266D01*
X1080008Y937310D01*
G37*
G36*
X1112520Y880008D02*
G01*
X1112520Y820013D01*
X1137513Y820013D01*
X1137513Y880008D01*
G37*
G36*
X1162507Y880008D02*
G01*
X1162507Y820013D01*
X1187500Y820013D01*
X1187500Y880008D01*
G37*
G36*
X1212494Y880008D02*
G01*
X1212494Y820013D01*
X1237488Y820013D01*
X1237488Y880008D01*
G37*
G36*
X1262329Y880008D02*
G01*
X1262329Y820013D01*
X1287322Y820013D01*
X1287322Y880008D01*
G37*
G36*
X1319987Y937310D02*
G01*
X1319987Y912266D01*
X1379982Y912266D01*
X1379982Y937310D01*
G37*
G36*
X1319987Y987298D02*
G01*
X1319987Y962304D01*
X1379982Y962304D01*
X1379982Y987298D01*
G37*
G36*
X1319987Y1037285D02*
G01*
X1319987Y1012291D01*
X1379982Y1012291D01*
X1379982Y1037285D01*
G37*
G36*
X1319987Y1087272D02*
G01*
X1319987Y1062278D01*
X1379982Y1062278D01*
X1379982Y1087272D01*
G37*
D10*
G01*
X544982Y1374902D03*
G01*
X404977Y1374902D03*
G36*
X2072386Y7182865D02*
G01*
X2062759Y7183450D01*
X2053259Y7185202D01*
X2044014Y7188072D01*
X2035225Y7192035D01*
X2026945Y7197039D01*
X2019350Y7202982D01*
X2012518Y7209815D01*
X2006549Y7217435D01*
X2001545Y7225690D01*
X1997583Y7234504D01*
X1994712Y7243724D01*
X1992985Y7253223D01*
X1992401Y7262876D01*
X1992985Y7272502D01*
X1994712Y7282027D01*
X1997583Y7291247D01*
X2001545Y7300061D01*
X2006549Y7308316D01*
X2012518Y7315911D01*
X2019350Y7322743D01*
X2026945Y7328712D01*
X2035225Y7333716D01*
X2044014Y7337679D01*
X2053259Y7340549D01*
X2062759Y7342276D01*
X2072386Y7342860D01*
X2232406Y7342860D01*
X2242032Y7342276D01*
X2251532Y7340549D01*
X2260752Y7337679D01*
X2269566Y7333716D01*
X2277846Y7328712D01*
X2285441Y7322743D01*
X2292273Y7315911D01*
X2298242Y7308316D01*
X2303221Y7300061D01*
X2307183Y7291247D01*
X2310079Y7282027D01*
X2311806Y7272502D01*
X2312390Y7262876D01*
X2311806Y7253223D01*
X2310079Y7243724D01*
X2307183Y7234504D01*
X2303221Y7225690D01*
X2298242Y7217435D01*
X2292273Y7209815D01*
X2285441Y7202982D01*
X2277846Y7197039D01*
X2269566Y7192035D01*
X2260752Y7188072D01*
X2251532Y7185202D01*
X2242032Y7183450D01*
X2232406Y7182865D01*
G37*
G36*
X2072386Y6928865D02*
G01*
X2062759Y6929450D01*
X2053259Y6931202D01*
X2044014Y6934072D01*
X2035225Y6938035D01*
X2026945Y6943039D01*
X2019350Y6948982D01*
X2012518Y6955815D01*
X2006549Y6963435D01*
X2001545Y6971690D01*
X1997583Y6980504D01*
X1994712Y6989724D01*
X1992985Y6999223D01*
X1992401Y7008876D01*
X1992985Y7018502D01*
X1994712Y7028027D01*
X1997583Y7037247D01*
X2001545Y7046061D01*
X2006549Y7054316D01*
X2012518Y7061911D01*
X2019350Y7068743D01*
X2026945Y7074712D01*
X2035225Y7079716D01*
X2044014Y7083679D01*
X2053259Y7086549D01*
X2062759Y7088276D01*
X2072386Y7088860D01*
X2232406Y7088860D01*
X2242032Y7088276D01*
X2251532Y7086549D01*
X2260752Y7083679D01*
X2269566Y7079716D01*
X2277846Y7074712D01*
X2285441Y7068743D01*
X2292273Y7061911D01*
X2298242Y7054316D01*
X2303221Y7046061D01*
X2307183Y7037247D01*
X2310079Y7028027D01*
X2311806Y7018502D01*
X2312390Y7008876D01*
X2311806Y6999223D01*
X2310079Y6989724D01*
X2307183Y6980504D01*
X2303221Y6971690D01*
X2298242Y6963435D01*
X2292273Y6955815D01*
X2285441Y6948982D01*
X2277846Y6943039D01*
X2269566Y6938035D01*
X2260752Y6934072D01*
X2251532Y6931202D01*
X2242032Y6929450D01*
X2232406Y6928865D01*
G37*
D11*
G01*
X2152395Y6754863D03*
G36*
X2072386Y6420865D02*
G01*
X2062759Y6421450D01*
X2053259Y6423202D01*
X2044014Y6426072D01*
X2035225Y6430035D01*
X2026945Y6435039D01*
X2019350Y6440982D01*
X2012518Y6447815D01*
X2006549Y6455435D01*
X2001545Y6463690D01*
X1997583Y6472504D01*
X1994712Y6481724D01*
X1992985Y6491223D01*
X1992401Y6500876D01*
X1992985Y6510528D01*
X1994712Y6520027D01*
X1997583Y6529247D01*
X2001545Y6538061D01*
X2006549Y6546316D01*
X2012518Y6553911D01*
X2019350Y6560743D01*
X2026945Y6566712D01*
X2035225Y6571716D01*
X2044014Y6575679D01*
X2053259Y6578549D01*
X2062759Y6580301D01*
X2072386Y6580860D01*
X2232406Y6580860D01*
X2242032Y6580301D01*
X2251532Y6578549D01*
X2260752Y6575679D01*
X2269566Y6571716D01*
X2277846Y6566712D01*
X2285441Y6560743D01*
X2292273Y6553911D01*
X2298242Y6546316D01*
X2303221Y6538061D01*
X2307183Y6529247D01*
X2310079Y6520027D01*
X2311806Y6510528D01*
X2312390Y6500876D01*
X2311806Y6491223D01*
X2310079Y6481724D01*
X2307183Y6472504D01*
X2303221Y6463690D01*
X2298242Y6455435D01*
X2292273Y6447815D01*
X2285441Y6440982D01*
X2277846Y6435039D01*
X2269566Y6430035D01*
X2260752Y6426072D01*
X2251532Y6423202D01*
X2242032Y6421450D01*
X2232406Y6420865D01*
G37*
G36*
X2072386Y6166865D02*
G01*
X2062759Y6167450D01*
X2053259Y6169202D01*
X2044014Y6172072D01*
X2035225Y6176035D01*
X2026945Y6181039D01*
X2019350Y6186982D01*
X2012518Y6193815D01*
X2006549Y6201435D01*
X2001545Y6209690D01*
X1997583Y6218504D01*
X1994712Y6227724D01*
X1992985Y6237223D01*
X1992401Y6246876D01*
X1992985Y6256528D01*
X1994712Y6266027D01*
X1997583Y6275247D01*
X2001545Y6284061D01*
X2006549Y6292316D01*
X2012518Y6299911D01*
X2019350Y6306743D01*
X2026945Y6312712D01*
X2035225Y6317716D01*
X2044014Y6321679D01*
X2053259Y6324549D01*
X2062759Y6326301D01*
X2072386Y6326860D01*
X2232406Y6326860D01*
X2242032Y6326301D01*
X2251532Y6324549D01*
X2260752Y6321679D01*
X2269566Y6317716D01*
X2277846Y6312712D01*
X2285441Y6306743D01*
X2292273Y6299911D01*
X2298242Y6292316D01*
X2303221Y6284061D01*
X2307183Y6275247D01*
X2310079Y6266027D01*
X2311806Y6256528D01*
X2312390Y6246876D01*
X2311806Y6237223D01*
X2310079Y6227724D01*
X2307183Y6218504D01*
X2303221Y6209690D01*
X2298242Y6201435D01*
X2292273Y6193815D01*
X2285441Y6186982D01*
X2277846Y6181039D01*
X2269566Y6176035D01*
X2260752Y6172072D01*
X2251532Y6169202D01*
X2242032Y6167450D01*
X2232406Y6166865D01*
G37*
G36*
X2072386Y5912865D02*
G01*
X2062759Y5913450D01*
X2053259Y5915202D01*
X2044014Y5918072D01*
X2035225Y5922035D01*
X2026945Y5927039D01*
X2019350Y5932982D01*
X2012518Y5939815D01*
X2006549Y5947435D01*
X2001545Y5955690D01*
X1997583Y5964504D01*
X1994712Y5973724D01*
X1992985Y5983223D01*
X1992401Y5992876D01*
X1992985Y6002528D01*
X1994712Y6012027D01*
X1997583Y6021247D01*
X2001545Y6030061D01*
X2006549Y6038316D01*
X2012518Y6045911D01*
X2019350Y6052743D01*
X2026945Y6058712D01*
X2035225Y6063716D01*
X2044014Y6067679D01*
X2053259Y6070549D01*
X2062759Y6072301D01*
X2072386Y6072886D01*
X2232406Y6072886D01*
X2242032Y6072301D01*
X2251532Y6070549D01*
X2260752Y6067679D01*
X2269566Y6063716D01*
X2277846Y6058712D01*
X2285441Y6052743D01*
X2292273Y6045911D01*
X2298242Y6038316D01*
X2303221Y6030061D01*
X2307183Y6021247D01*
X2310079Y6012027D01*
X2311806Y6002528D01*
X2312390Y5992876D01*
X2311806Y5983223D01*
X2310079Y5973724D01*
X2307183Y5964504D01*
X2303221Y5955690D01*
X2298242Y5947435D01*
X2292273Y5939815D01*
X2285441Y5932982D01*
X2277846Y5927039D01*
X2269566Y5922035D01*
X2260752Y5918072D01*
X2251532Y5915202D01*
X2242032Y5913450D01*
X2232406Y5912865D01*
G37*
G36*
X2072386Y5658865D02*
G01*
X2062759Y5659450D01*
X2053259Y5661202D01*
X2044014Y5664072D01*
X2035225Y5668035D01*
X2026945Y5673039D01*
X2019350Y5678982D01*
X2012518Y5685815D01*
X2006549Y5693435D01*
X2001545Y5701690D01*
X1997583Y5710504D01*
X1994712Y5719724D01*
X1992985Y5729223D01*
X1992401Y5738876D01*
X1992985Y5748528D01*
X1994712Y5758027D01*
X1997583Y5767247D01*
X2001545Y5776061D01*
X2006549Y5784316D01*
X2012518Y5791936D01*
X2019350Y5798743D01*
X2026945Y5804712D01*
X2035225Y5809716D01*
X2044014Y5813679D01*
X2053259Y5816549D01*
X2062759Y5818301D01*
X2072386Y5818886D01*
X2232406Y5818886D01*
X2242032Y5818301D01*
X2251532Y5816549D01*
X2260752Y5813679D01*
X2269566Y5809716D01*
X2277846Y5804712D01*
X2285441Y5798743D01*
X2292273Y5791936D01*
X2298242Y5784316D01*
X2303221Y5776061D01*
X2307183Y5767247D01*
X2310079Y5758027D01*
X2311806Y5748528D01*
X2312390Y5738876D01*
X2311806Y5729223D01*
X2310079Y5719724D01*
X2307183Y5710504D01*
X2303221Y5701690D01*
X2298242Y5693435D01*
X2292273Y5685815D01*
X2285441Y5678982D01*
X2277846Y5673039D01*
X2269566Y5668035D01*
X2260752Y5664072D01*
X2251532Y5661202D01*
X2242032Y5659450D01*
X2232406Y5658865D01*
G37*
D12*
G01*
X2152395Y5484876D03*
G36*
X2072386Y5150865D02*
G01*
X2062759Y5151450D01*
X2053259Y5153202D01*
X2044014Y5156072D01*
X2035225Y5160035D01*
X2026945Y5165039D01*
X2019350Y5170982D01*
X2012518Y5177815D01*
X2006549Y5185435D01*
X2001545Y5193690D01*
X1997583Y5202504D01*
X1994712Y5211724D01*
X1992985Y5221223D01*
X1992401Y5230876D01*
X1992985Y5240528D01*
X1994712Y5250027D01*
X1997583Y5259247D01*
X2001545Y5268061D01*
X2006549Y5276316D01*
X2012518Y5283936D01*
X2019350Y5290743D01*
X2026945Y5296712D01*
X2035225Y5301716D01*
X2044014Y5305679D01*
X2053259Y5308549D01*
X2062759Y5310301D01*
X2072386Y5310886D01*
X2232406Y5310886D01*
X2242032Y5310301D01*
X2251532Y5308549D01*
X2260752Y5305679D01*
X2269566Y5301716D01*
X2277846Y5296712D01*
X2285441Y5290743D01*
X2292273Y5283936D01*
X2298242Y5276316D01*
X2303221Y5268061D01*
X2307183Y5259247D01*
X2310079Y5250027D01*
X2311806Y5240528D01*
X2312390Y5230876D01*
X2311806Y5221223D01*
X2310079Y5211724D01*
X2307183Y5202504D01*
X2303221Y5193690D01*
X2298242Y5185435D01*
X2292273Y5177815D01*
X2285441Y5170982D01*
X2277846Y5165039D01*
X2269566Y5160035D01*
X2260752Y5156072D01*
X2251532Y5153202D01*
X2242032Y5151450D01*
X2232406Y5150865D01*
G37*
G36*
X2072386Y4896865D02*
G01*
X2062759Y4897450D01*
X2053259Y4899202D01*
X2044014Y4902072D01*
X2035225Y4906035D01*
X2026945Y4911039D01*
X2019350Y4916982D01*
X2012518Y4923815D01*
X2006549Y4931435D01*
X2001545Y4939690D01*
X1997583Y4948504D01*
X1994712Y4957724D01*
X1992985Y4967223D01*
X1992401Y4976876D01*
X1992985Y4986528D01*
X1994712Y4996027D01*
X1997583Y5005247D01*
X2001545Y5014061D01*
X2006549Y5022316D01*
X2012518Y5029936D01*
X2019350Y5036743D01*
X2026945Y5042712D01*
X2035225Y5047716D01*
X2044014Y5051679D01*
X2053259Y5054549D01*
X2062759Y5056301D01*
X2072386Y5056886D01*
X2232406Y5056886D01*
X2242032Y5056301D01*
X2251532Y5054549D01*
X2260752Y5051679D01*
X2269566Y5047716D01*
X2277846Y5042712D01*
X2285441Y5036743D01*
X2292273Y5029936D01*
X2298242Y5022316D01*
X2303221Y5014061D01*
X2307183Y5005247D01*
X2310079Y4996027D01*
X2311806Y4986528D01*
X2312390Y4976876D01*
X2311806Y4967223D01*
X2310079Y4957724D01*
X2307183Y4948504D01*
X2303221Y4939690D01*
X2298242Y4931435D01*
X2292273Y4923815D01*
X2285441Y4916982D01*
X2277846Y4911039D01*
X2269566Y4906035D01*
X2260752Y4902072D01*
X2251532Y4899202D01*
X2242032Y4897450D01*
X2232406Y4896865D01*
G37*
G36*
X2072386Y4642865D02*
G01*
X2062759Y4643450D01*
X2053259Y4645202D01*
X2044014Y4648072D01*
X2035225Y4652035D01*
X2026945Y4657039D01*
X2019350Y4663008D01*
X2012518Y4669815D01*
X2006549Y4677435D01*
X2001545Y4685690D01*
X1997583Y4694504D01*
X1994712Y4703724D01*
X1992985Y4713223D01*
X1992401Y4722876D01*
X1992985Y4732528D01*
X1994712Y4742027D01*
X1997583Y4751247D01*
X2001545Y4760061D01*
X2006549Y4768316D01*
X2012518Y4775936D01*
X2019350Y4782769D01*
X2026945Y4788712D01*
X2035225Y4793716D01*
X2044014Y4797679D01*
X2053259Y4800549D01*
X2062759Y4802301D01*
X2072386Y4802886D01*
X2232406Y4802886D01*
X2242032Y4802301D01*
X2251532Y4800549D01*
X2260752Y4797679D01*
X2269566Y4793716D01*
X2277846Y4788712D01*
X2285441Y4782769D01*
X2292273Y4775936D01*
X2298242Y4768316D01*
X2303221Y4760061D01*
X2307183Y4751247D01*
X2310079Y4742027D01*
X2311806Y4732528D01*
X2312390Y4722876D01*
X2311806Y4713223D01*
X2310079Y4703724D01*
X2307183Y4694504D01*
X2303221Y4685690D01*
X2298242Y4677435D01*
X2292273Y4669815D01*
X2285441Y4663008D01*
X2277846Y4657039D01*
X2269566Y4652035D01*
X2260752Y4648072D01*
X2251532Y4645202D01*
X2242032Y4643450D01*
X2232406Y4642865D01*
G37*
G36*
X2072386Y4388865D02*
G01*
X2062759Y4389450D01*
X2053259Y4391202D01*
X2044014Y4394072D01*
X2035225Y4398035D01*
X2026945Y4403039D01*
X2019350Y4409008D01*
X2012518Y4415815D01*
X2006549Y4423435D01*
X2001545Y4431690D01*
X1997583Y4440504D01*
X1994712Y4449724D01*
X1992985Y4459223D01*
X1992401Y4468876D01*
X1992985Y4478528D01*
X1994712Y4488027D01*
X1997583Y4497247D01*
X2001545Y4506061D01*
X2006549Y4514316D01*
X2012518Y4521936D01*
X2019350Y4528769D01*
X2026945Y4534712D01*
X2035225Y4539716D01*
X2044014Y4543679D01*
X2053259Y4546549D01*
X2062759Y4548301D01*
X2072386Y4548886D01*
X2232406Y4548886D01*
X2242032Y4548301D01*
X2251532Y4546549D01*
X2260752Y4543679D01*
X2269566Y4539716D01*
X2277846Y4534712D01*
X2285441Y4528769D01*
X2292273Y4521936D01*
X2298242Y4514316D01*
X2303221Y4506061D01*
X2307183Y4497247D01*
X2310079Y4488027D01*
X2311806Y4478528D01*
X2312390Y4468876D01*
X2311806Y4459223D01*
X2310079Y4449724D01*
X2307183Y4440504D01*
X2303221Y4431690D01*
X2298242Y4423435D01*
X2292273Y4415815D01*
X2285441Y4409008D01*
X2277846Y4403039D01*
X2269566Y4398035D01*
X2260752Y4394072D01*
X2251532Y4391202D01*
X2242032Y4389450D01*
X2232406Y4388865D01*
G37*
G01*
X2152395Y4214876D03*
G36*
X2072386Y3880865D02*
G01*
X2062759Y3881450D01*
X2053259Y3883202D01*
X2044014Y3886072D01*
X2035225Y3890035D01*
X2026945Y3895039D01*
X2019350Y3901008D01*
X2012518Y3907815D01*
X2006549Y3915435D01*
X2001545Y3923690D01*
X1997583Y3932504D01*
X1994712Y3941724D01*
X1992985Y3951223D01*
X1992401Y3960876D01*
X1992985Y3970528D01*
X1994712Y3980027D01*
X1997583Y3989247D01*
X2001545Y3998061D01*
X2006549Y4006316D01*
X2012518Y4013936D01*
X2019350Y4020769D01*
X2026945Y4026712D01*
X2035225Y4031716D01*
X2044014Y4035679D01*
X2053259Y4038549D01*
X2062759Y4040301D01*
X2072386Y4040886D01*
X2232406Y4040886D01*
X2242032Y4040301D01*
X2251532Y4038549D01*
X2260752Y4035679D01*
X2269566Y4031716D01*
X2277846Y4026712D01*
X2285441Y4020769D01*
X2292273Y4013936D01*
X2298242Y4006316D01*
X2303221Y3998061D01*
X2307183Y3989247D01*
X2310079Y3980027D01*
X2311806Y3970528D01*
X2312390Y3960876D01*
X2311806Y3951223D01*
X2310079Y3941724D01*
X2307183Y3932504D01*
X2303221Y3923690D01*
X2298242Y3915435D01*
X2292273Y3907815D01*
X2285441Y3901008D01*
X2277846Y3895039D01*
X2269566Y3890035D01*
X2260752Y3886072D01*
X2251532Y3883202D01*
X2242032Y3881450D01*
X2232406Y3880865D01*
G37*
G36*
X2072386Y3626865D02*
G01*
X2062759Y3627450D01*
X2053259Y3629202D01*
X2044014Y3632072D01*
X2035225Y3636035D01*
X2026945Y3641039D01*
X2019350Y3647008D01*
X2012518Y3653840D01*
X2006549Y3661435D01*
X2001545Y3669690D01*
X1997583Y3678504D01*
X1994712Y3687724D01*
X1992985Y3697223D01*
X1992401Y3706876D01*
X1992985Y3716528D01*
X1994712Y3726027D01*
X1997583Y3735247D01*
X2001545Y3744061D01*
X2006549Y3752316D01*
X2012518Y3759936D01*
X2019350Y3766769D01*
X2026945Y3772712D01*
X2035225Y3777716D01*
X2044014Y3781679D01*
X2053259Y3784549D01*
X2062759Y3786301D01*
X2072386Y3786886D01*
X2232406Y3786886D01*
X2242032Y3786301D01*
X2251532Y3784549D01*
X2260752Y3781679D01*
X2269566Y3777716D01*
X2277846Y3772712D01*
X2285441Y3766769D01*
X2292273Y3759936D01*
X2298242Y3752316D01*
X2303221Y3744061D01*
X2307183Y3735247D01*
X2310079Y3726027D01*
X2311806Y3716528D01*
X2312390Y3706876D01*
X2311806Y3697223D01*
X2310079Y3687724D01*
X2307183Y3678504D01*
X2303221Y3669690D01*
X2298242Y3661435D01*
X2292273Y3653840D01*
X2285441Y3647008D01*
X2277846Y3641039D01*
X2269566Y3636035D01*
X2260752Y3632072D01*
X2251532Y3629202D01*
X2242032Y3627450D01*
X2232406Y3626865D01*
G37*
G36*
X2072386Y3372891D02*
G01*
X2062759Y3373450D01*
X2053259Y3375202D01*
X2044014Y3378072D01*
X2035225Y3382035D01*
X2026945Y3387039D01*
X2019350Y3393008D01*
X2012518Y3399840D01*
X2006549Y3407435D01*
X2001545Y3415690D01*
X1997583Y3424504D01*
X1994712Y3433724D01*
X1992985Y3443223D01*
X1992401Y3452876D01*
X1992985Y3462528D01*
X1994712Y3472027D01*
X1997583Y3481247D01*
X2001545Y3490061D01*
X2006549Y3498316D01*
X2012518Y3505936D01*
X2019350Y3512769D01*
X2026945Y3518712D01*
X2035225Y3523716D01*
X2044014Y3527679D01*
X2053259Y3530549D01*
X2062759Y3532301D01*
X2072386Y3532886D01*
X2232406Y3532886D01*
X2242032Y3532301D01*
X2251532Y3530549D01*
X2260752Y3527679D01*
X2269566Y3523716D01*
X2277846Y3518712D01*
X2285441Y3512769D01*
X2292273Y3505936D01*
X2298242Y3498316D01*
X2303221Y3490061D01*
X2307183Y3481247D01*
X2310079Y3472027D01*
X2311806Y3462528D01*
X2312390Y3452876D01*
X2311806Y3443223D01*
X2310079Y3433724D01*
X2307183Y3424504D01*
X2303221Y3415690D01*
X2298242Y3407435D01*
X2292273Y3399840D01*
X2285441Y3393008D01*
X2277846Y3387039D01*
X2269566Y3382035D01*
X2260752Y3378072D01*
X2251532Y3375202D01*
X2242032Y3373450D01*
X2232406Y3372891D01*
G37*
G36*
X2072386Y3118891D02*
G01*
X2062759Y3119450D01*
X2053259Y3121202D01*
X2044014Y3124072D01*
X2035225Y3128035D01*
X2026945Y3133039D01*
X2019350Y3139008D01*
X2012518Y3145840D01*
X2006549Y3153435D01*
X2001545Y3161690D01*
X1997583Y3170504D01*
X1994712Y3179724D01*
X1992985Y3189223D01*
X1992401Y3198876D01*
X1992985Y3208528D01*
X1994712Y3218027D01*
X1997583Y3227247D01*
X2001545Y3236061D01*
X2006549Y3244316D01*
X2012518Y3251936D01*
X2019350Y3258769D01*
X2026945Y3264712D01*
X2035225Y3269716D01*
X2044014Y3273679D01*
X2053259Y3276549D01*
X2062759Y3278301D01*
X2072386Y3278886D01*
X2232406Y3278886D01*
X2242032Y3278301D01*
X2251532Y3276549D01*
X2260752Y3273679D01*
X2269566Y3269716D01*
X2277846Y3264712D01*
X2285441Y3258769D01*
X2292273Y3251936D01*
X2298242Y3244316D01*
X2303221Y3236061D01*
X2307183Y3227247D01*
X2310079Y3218027D01*
X2311806Y3208528D01*
X2312390Y3198876D01*
X2311806Y3189223D01*
X2310079Y3179724D01*
X2307183Y3170504D01*
X2303221Y3161690D01*
X2298242Y3153435D01*
X2292273Y3145840D01*
X2285441Y3139008D01*
X2277846Y3133039D01*
X2269566Y3128035D01*
X2260752Y3124072D01*
X2251532Y3121202D01*
X2242032Y3119450D01*
X2232406Y3118891D01*
G37*
D11*
G01*
X2152395Y2944888D03*
G36*
X2072386Y2610891D02*
G01*
X2062759Y2611475D01*
X2053259Y2613202D01*
X2044014Y2616072D01*
X2035225Y2620035D01*
X2026945Y2625039D01*
X2019350Y2631008D01*
X2012518Y2637840D01*
X2006549Y2645435D01*
X2001545Y2653690D01*
X1997583Y2662504D01*
X1994712Y2671724D01*
X1992985Y2681249D01*
X1992401Y2690876D01*
X1992985Y2700528D01*
X1994712Y2710027D01*
X1997583Y2719247D01*
X2001545Y2728061D01*
X2006549Y2736316D01*
X2012518Y2743936D01*
X2019350Y2750769D01*
X2026945Y2756712D01*
X2035225Y2761716D01*
X2044014Y2765679D01*
X2053259Y2768549D01*
X2062759Y2770301D01*
X2072386Y2770886D01*
X2232406Y2770886D01*
X2242032Y2770301D01*
X2251532Y2768549D01*
X2260752Y2765679D01*
X2269566Y2761716D01*
X2277846Y2756712D01*
X2285441Y2750769D01*
X2292273Y2743936D01*
X2298242Y2736316D01*
X2303221Y2728061D01*
X2307183Y2719247D01*
X2310079Y2710027D01*
X2311806Y2700528D01*
X2312390Y2690876D01*
X2311806Y2681249D01*
X2310079Y2671724D01*
X2307183Y2662504D01*
X2303221Y2653690D01*
X2298242Y2645435D01*
X2292273Y2637840D01*
X2285441Y2631008D01*
X2277846Y2625039D01*
X2269566Y2620035D01*
X2260752Y2616072D01*
X2251532Y2613202D01*
X2242032Y2611475D01*
X2232406Y2610891D01*
G37*
G36*
X2072386Y2356891D02*
G01*
X2062759Y2357475D01*
X2053259Y2359202D01*
X2044014Y2362072D01*
X2035225Y2366035D01*
X2026945Y2371039D01*
X2019350Y2377008D01*
X2012518Y2383840D01*
X2006549Y2391435D01*
X2001545Y2399690D01*
X1997583Y2408504D01*
X1994712Y2417724D01*
X1992985Y2427249D01*
X1992401Y2436876D01*
X1992985Y2446528D01*
X1994712Y2456027D01*
X1997583Y2465247D01*
X2001545Y2474061D01*
X2006549Y2482316D01*
X2012518Y2489936D01*
X2019350Y2496769D01*
X2026945Y2502712D01*
X2035225Y2507716D01*
X2044014Y2511679D01*
X2053259Y2514549D01*
X2062759Y2516301D01*
X2072386Y2516886D01*
X2232406Y2516886D01*
X2242032Y2516301D01*
X2251532Y2514549D01*
X2260752Y2511679D01*
X2269566Y2507716D01*
X2277846Y2502712D01*
X2285441Y2496769D01*
X2292273Y2489936D01*
X2298242Y2482316D01*
X2303221Y2474061D01*
X2307183Y2465247D01*
X2310079Y2456027D01*
X2311806Y2446528D01*
X2312390Y2436876D01*
X2311806Y2427249D01*
X2310079Y2417724D01*
X2307183Y2408504D01*
X2303221Y2399690D01*
X2298242Y2391435D01*
X2292273Y2383840D01*
X2285441Y2377008D01*
X2277846Y2371039D01*
X2269566Y2366035D01*
X2260752Y2362072D01*
X2251532Y2359202D01*
X2242032Y2357475D01*
X2232406Y2356891D01*
G37*
G36*
X167386Y2356891D02*
G01*
X157759Y2357475D01*
X148259Y2359202D01*
X139039Y2362072D01*
X130225Y2366035D01*
X121945Y2371039D01*
X114350Y2377008D01*
X107518Y2383840D01*
X101549Y2391435D01*
X96570Y2399690D01*
X92608Y2408504D01*
X89712Y2417724D01*
X87985Y2427249D01*
X87401Y2436876D01*
X87985Y2446528D01*
X89712Y2456027D01*
X92608Y2465247D01*
X96570Y2474061D01*
X101549Y2482316D01*
X107518Y2489936D01*
X114350Y2496769D01*
X121945Y2502712D01*
X130225Y2507716D01*
X139039Y2511679D01*
X148259Y2514549D01*
X157759Y2516301D01*
X167386Y2516886D01*
X327405Y2516886D01*
X337032Y2516301D01*
X346532Y2514549D01*
X355777Y2511679D01*
X364566Y2507716D01*
X372846Y2502712D01*
X380441Y2496769D01*
X387273Y2489936D01*
X393242Y2482316D01*
X398246Y2474061D01*
X402209Y2465247D01*
X405079Y2456027D01*
X406806Y2446528D01*
X407390Y2436876D01*
X406806Y2427249D01*
X405079Y2417724D01*
X402209Y2408504D01*
X398246Y2399690D01*
X393242Y2391435D01*
X387273Y2383840D01*
X380441Y2377008D01*
X372846Y2371039D01*
X364566Y2366035D01*
X355777Y2362072D01*
X346532Y2359202D01*
X337032Y2357475D01*
X327405Y2356891D01*
G37*
G36*
X167386Y2610891D02*
G01*
X157759Y2611475D01*
X148259Y2613202D01*
X139039Y2616072D01*
X130225Y2620035D01*
X121945Y2625039D01*
X114350Y2631008D01*
X107518Y2637840D01*
X101549Y2645435D01*
X96570Y2653690D01*
X92608Y2662504D01*
X89712Y2671724D01*
X87985Y2681249D01*
X87401Y2690876D01*
X87985Y2700528D01*
X89712Y2710027D01*
X92608Y2719247D01*
X96570Y2728061D01*
X101549Y2736316D01*
X107518Y2743936D01*
X114350Y2750769D01*
X121945Y2756712D01*
X130225Y2761716D01*
X139039Y2765679D01*
X148259Y2768549D01*
X157759Y2770301D01*
X167386Y2770886D01*
X327405Y2770886D01*
X337032Y2770301D01*
X346532Y2768549D01*
X355777Y2765679D01*
X364566Y2761716D01*
X372846Y2756712D01*
X380441Y2750769D01*
X387273Y2743936D01*
X393242Y2736316D01*
X398246Y2728061D01*
X402209Y2719247D01*
X405079Y2710027D01*
X406806Y2700528D01*
X407390Y2690876D01*
X406806Y2681249D01*
X405079Y2671724D01*
X402209Y2662504D01*
X398246Y2653690D01*
X393242Y2645435D01*
X387273Y2637840D01*
X380441Y2631008D01*
X372846Y2625039D01*
X364566Y2620035D01*
X355777Y2616072D01*
X346532Y2613202D01*
X337032Y2611475D01*
X327405Y2610891D01*
G37*
G01*
X247396Y2944888D03*
G36*
X167386Y3118891D02*
G01*
X157759Y3119450D01*
X148259Y3121202D01*
X139039Y3124072D01*
X130225Y3128035D01*
X121945Y3133039D01*
X114350Y3139008D01*
X107518Y3145840D01*
X101549Y3153435D01*
X96570Y3161690D01*
X92608Y3170504D01*
X89712Y3179724D01*
X87985Y3189223D01*
X87401Y3198876D01*
X87985Y3208528D01*
X89712Y3218027D01*
X92608Y3227247D01*
X96570Y3236061D01*
X101549Y3244316D01*
X107518Y3251936D01*
X114350Y3258769D01*
X121945Y3264712D01*
X130225Y3269716D01*
X139039Y3273679D01*
X148259Y3276549D01*
X157759Y3278301D01*
X167386Y3278886D01*
X327405Y3278886D01*
X337032Y3278301D01*
X346532Y3276549D01*
X355777Y3273679D01*
X364566Y3269716D01*
X372846Y3264712D01*
X380441Y3258769D01*
X387273Y3251936D01*
X393242Y3244316D01*
X398246Y3236061D01*
X402209Y3227247D01*
X405079Y3218027D01*
X406806Y3208528D01*
X407390Y3198876D01*
X406806Y3189223D01*
X405079Y3179724D01*
X402209Y3170504D01*
X398246Y3161690D01*
X393242Y3153435D01*
X387273Y3145840D01*
X380441Y3139008D01*
X372846Y3133039D01*
X364566Y3128035D01*
X355777Y3124072D01*
X346532Y3121202D01*
X337032Y3119450D01*
X327405Y3118891D01*
G37*
G36*
X167386Y3372891D02*
G01*
X157759Y3373450D01*
X148259Y3375202D01*
X139039Y3378072D01*
X130225Y3382035D01*
X121945Y3387039D01*
X114350Y3393008D01*
X107518Y3399840D01*
X101549Y3407435D01*
X96570Y3415690D01*
X92608Y3424504D01*
X89712Y3433724D01*
X87985Y3443223D01*
X87401Y3452876D01*
X87985Y3462528D01*
X89712Y3472027D01*
X92608Y3481247D01*
X96570Y3490061D01*
X101549Y3498316D01*
X107518Y3505936D01*
X114350Y3512769D01*
X121945Y3518712D01*
X130225Y3523716D01*
X139039Y3527679D01*
X148259Y3530549D01*
X157759Y3532301D01*
X167386Y3532886D01*
X327405Y3532886D01*
X337032Y3532301D01*
X346532Y3530549D01*
X355777Y3527679D01*
X364566Y3523716D01*
X372846Y3518712D01*
X380441Y3512769D01*
X387273Y3505936D01*
X393242Y3498316D01*
X398246Y3490061D01*
X402209Y3481247D01*
X405079Y3472027D01*
X406806Y3462528D01*
X407390Y3452876D01*
X406806Y3443223D01*
X405079Y3433724D01*
X402209Y3424504D01*
X398246Y3415690D01*
X393242Y3407435D01*
X387273Y3399840D01*
X380441Y3393008D01*
X372846Y3387039D01*
X364566Y3382035D01*
X355777Y3378072D01*
X346532Y3375202D01*
X337032Y3373450D01*
X327405Y3372891D01*
G37*
G36*
X167386Y3626865D02*
G01*
X157759Y3627450D01*
X148259Y3629202D01*
X139039Y3632072D01*
X130225Y3636035D01*
X121945Y3641039D01*
X114350Y3647008D01*
X107518Y3653840D01*
X101549Y3661435D01*
X96570Y3669690D01*
X92608Y3678504D01*
X89712Y3687724D01*
X87985Y3697223D01*
X87401Y3706876D01*
X87985Y3716528D01*
X89712Y3726027D01*
X92608Y3735247D01*
X96570Y3744061D01*
X101549Y3752316D01*
X107518Y3759936D01*
X114350Y3766769D01*
X121945Y3772712D01*
X130225Y3777716D01*
X139039Y3781679D01*
X148259Y3784549D01*
X157759Y3786301D01*
X167386Y3786886D01*
X327405Y3786886D01*
X337032Y3786301D01*
X346532Y3784549D01*
X355777Y3781679D01*
X364566Y3777716D01*
X372846Y3772712D01*
X380441Y3766769D01*
X387273Y3759936D01*
X393242Y3752316D01*
X398246Y3744061D01*
X402209Y3735247D01*
X405079Y3726027D01*
X406806Y3716528D01*
X407390Y3706876D01*
X406806Y3697223D01*
X405079Y3687724D01*
X402209Y3678504D01*
X398246Y3669690D01*
X393242Y3661435D01*
X387273Y3653840D01*
X380441Y3647008D01*
X372846Y3641039D01*
X364566Y3636035D01*
X355777Y3632072D01*
X346532Y3629202D01*
X337032Y3627450D01*
X327405Y3626865D01*
G37*
G36*
X167386Y3880865D02*
G01*
X157759Y3881450D01*
X148259Y3883202D01*
X139039Y3886072D01*
X130225Y3890035D01*
X121945Y3895039D01*
X114350Y3901008D01*
X107518Y3907815D01*
X101549Y3915435D01*
X96570Y3923690D01*
X92608Y3932504D01*
X89712Y3941724D01*
X87985Y3951223D01*
X87401Y3960876D01*
X87985Y3970528D01*
X89712Y3980027D01*
X92608Y3989247D01*
X96570Y3998061D01*
X101549Y4006316D01*
X107518Y4013936D01*
X114350Y4020769D01*
X121945Y4026712D01*
X130225Y4031716D01*
X139039Y4035679D01*
X148259Y4038549D01*
X157759Y4040301D01*
X167386Y4040886D01*
X327405Y4040886D01*
X337032Y4040301D01*
X346532Y4038549D01*
X355777Y4035679D01*
X364566Y4031716D01*
X372846Y4026712D01*
X380441Y4020769D01*
X387273Y4013936D01*
X393242Y4006316D01*
X398246Y3998061D01*
X402209Y3989247D01*
X405079Y3980027D01*
X406806Y3970528D01*
X407390Y3960876D01*
X406806Y3951223D01*
X405079Y3941724D01*
X402209Y3932504D01*
X398246Y3923690D01*
X393242Y3915435D01*
X387273Y3907815D01*
X380441Y3901008D01*
X372846Y3895039D01*
X364566Y3890035D01*
X355777Y3886072D01*
X346532Y3883202D01*
X337032Y3881450D01*
X327405Y3880865D01*
G37*
D12*
G01*
X247396Y4214876D03*
G36*
X167386Y4388865D02*
G01*
X157759Y4389450D01*
X148259Y4391202D01*
X139039Y4394072D01*
X130225Y4398035D01*
X121945Y4403039D01*
X114350Y4409008D01*
X107518Y4415815D01*
X101549Y4423435D01*
X96570Y4431690D01*
X92608Y4440504D01*
X89712Y4449724D01*
X87985Y4459223D01*
X87401Y4468876D01*
X87985Y4478528D01*
X89712Y4488027D01*
X92608Y4497247D01*
X96570Y4506061D01*
X101549Y4514316D01*
X107518Y4521936D01*
X114350Y4528769D01*
X121945Y4534712D01*
X130225Y4539716D01*
X139039Y4543679D01*
X148259Y4546549D01*
X157759Y4548301D01*
X167386Y4548886D01*
X327405Y4548886D01*
X337032Y4548301D01*
X346532Y4546549D01*
X355777Y4543679D01*
X364566Y4539716D01*
X372846Y4534712D01*
X380441Y4528769D01*
X387273Y4521936D01*
X393242Y4514316D01*
X398246Y4506061D01*
X402209Y4497247D01*
X405079Y4488027D01*
X406806Y4478528D01*
X407390Y4468876D01*
X406806Y4459223D01*
X405079Y4449724D01*
X402209Y4440504D01*
X398246Y4431690D01*
X393242Y4423435D01*
X387273Y4415815D01*
X380441Y4409008D01*
X372846Y4403039D01*
X364566Y4398035D01*
X355777Y4394072D01*
X346532Y4391202D01*
X337032Y4389450D01*
X327405Y4388865D01*
G37*
G36*
X167386Y4642865D02*
G01*
X157759Y4643450D01*
X148259Y4645202D01*
X139039Y4648072D01*
X130225Y4652035D01*
X121945Y4657039D01*
X114350Y4663008D01*
X107518Y4669815D01*
X101549Y4677435D01*
X96570Y4685690D01*
X92608Y4694504D01*
X89712Y4703724D01*
X87985Y4713223D01*
X87401Y4722876D01*
X87985Y4732528D01*
X89712Y4742027D01*
X92608Y4751247D01*
X96570Y4760061D01*
X101549Y4768316D01*
X107518Y4775936D01*
X114350Y4782769D01*
X121945Y4788712D01*
X130225Y4793716D01*
X139039Y4797679D01*
X148259Y4800549D01*
X157759Y4802301D01*
X167386Y4802886D01*
X327405Y4802886D01*
X337032Y4802301D01*
X346532Y4800549D01*
X355777Y4797679D01*
X364566Y4793716D01*
X372846Y4788712D01*
X380441Y4782769D01*
X387273Y4775936D01*
X393242Y4768316D01*
X398246Y4760061D01*
X402209Y4751247D01*
X405079Y4742027D01*
X406806Y4732528D01*
X407390Y4722876D01*
X406806Y4713223D01*
X405079Y4703724D01*
X402209Y4694504D01*
X398246Y4685690D01*
X393242Y4677435D01*
X387273Y4669815D01*
X380441Y4663008D01*
X372846Y4657039D01*
X364566Y4652035D01*
X355777Y4648072D01*
X346532Y4645202D01*
X337032Y4643450D01*
X327405Y4642865D01*
G37*
G36*
X167386Y4896865D02*
G01*
X157759Y4897450D01*
X148259Y4899202D01*
X139039Y4902072D01*
X130225Y4906035D01*
X121945Y4911039D01*
X114350Y4916982D01*
X107518Y4923815D01*
X101549Y4931435D01*
X96570Y4939690D01*
X92608Y4948504D01*
X89712Y4957724D01*
X87985Y4967223D01*
X87401Y4976876D01*
X87985Y4986528D01*
X89712Y4996027D01*
X92608Y5005247D01*
X96570Y5014061D01*
X101549Y5022316D01*
X107518Y5029936D01*
X114350Y5036743D01*
X121945Y5042712D01*
X130225Y5047716D01*
X139039Y5051679D01*
X148259Y5054549D01*
X157759Y5056301D01*
X167386Y5056886D01*
X327405Y5056886D01*
X337032Y5056301D01*
X346532Y5054549D01*
X355777Y5051679D01*
X364566Y5047716D01*
X372846Y5042712D01*
X380441Y5036743D01*
X387273Y5029936D01*
X393242Y5022316D01*
X398246Y5014061D01*
X402209Y5005247D01*
X405079Y4996027D01*
X406806Y4986528D01*
X407390Y4976876D01*
X406806Y4967223D01*
X405079Y4957724D01*
X402209Y4948504D01*
X398246Y4939690D01*
X393242Y4931435D01*
X387273Y4923815D01*
X380441Y4916982D01*
X372846Y4911039D01*
X364566Y4906035D01*
X355777Y4902072D01*
X346532Y4899202D01*
X337032Y4897450D01*
X327405Y4896865D01*
G37*
G36*
X167386Y5150865D02*
G01*
X157759Y5151450D01*
X148259Y5153202D01*
X139039Y5156072D01*
X130225Y5160035D01*
X121945Y5165039D01*
X114350Y5170982D01*
X107518Y5177815D01*
X101549Y5185435D01*
X96570Y5193690D01*
X92608Y5202504D01*
X89712Y5211724D01*
X87985Y5221223D01*
X87401Y5230876D01*
X87985Y5240528D01*
X89712Y5250027D01*
X92608Y5259247D01*
X96570Y5268061D01*
X101549Y5276316D01*
X107518Y5283936D01*
X114350Y5290743D01*
X121945Y5296712D01*
X130225Y5301716D01*
X139039Y5305679D01*
X148259Y5308549D01*
X157759Y5310301D01*
X167386Y5310886D01*
X327405Y5310886D01*
X337032Y5310301D01*
X346532Y5308549D01*
X355777Y5305679D01*
X364566Y5301716D01*
X372846Y5296712D01*
X380441Y5290743D01*
X387273Y5283936D01*
X393242Y5276316D01*
X398246Y5268061D01*
X402209Y5259247D01*
X405079Y5250027D01*
X406806Y5240528D01*
X407390Y5230876D01*
X406806Y5221223D01*
X405079Y5211724D01*
X402209Y5202504D01*
X398246Y5193690D01*
X393242Y5185435D01*
X387273Y5177815D01*
X380441Y5170982D01*
X372846Y5165039D01*
X364566Y5160035D01*
X355777Y5156072D01*
X346532Y5153202D01*
X337032Y5151450D01*
X327405Y5150865D01*
G37*
G01*
X247396Y5484876D03*
G36*
X167386Y5658865D02*
G01*
X157759Y5659450D01*
X148259Y5661202D01*
X139039Y5664072D01*
X130225Y5668035D01*
X121945Y5673039D01*
X114350Y5678982D01*
X107518Y5685815D01*
X101549Y5693435D01*
X96570Y5701690D01*
X92608Y5710504D01*
X89712Y5719724D01*
X87985Y5729223D01*
X87401Y5738876D01*
X87985Y5748528D01*
X89712Y5758027D01*
X92608Y5767247D01*
X96570Y5776061D01*
X101549Y5784316D01*
X107518Y5791936D01*
X114350Y5798743D01*
X121945Y5804712D01*
X130225Y5809716D01*
X139039Y5813679D01*
X148259Y5816549D01*
X157759Y5818301D01*
X167386Y5818886D01*
X327405Y5818886D01*
X337032Y5818301D01*
X346532Y5816549D01*
X355777Y5813679D01*
X364566Y5809716D01*
X372846Y5804712D01*
X380441Y5798743D01*
X387273Y5791936D01*
X393242Y5784316D01*
X398246Y5776061D01*
X402209Y5767247D01*
X405079Y5758027D01*
X406806Y5748528D01*
X407390Y5738876D01*
X406806Y5729223D01*
X405079Y5719724D01*
X402209Y5710504D01*
X398246Y5701690D01*
X393242Y5693435D01*
X387273Y5685815D01*
X380441Y5678982D01*
X372846Y5673039D01*
X364566Y5668035D01*
X355777Y5664072D01*
X346532Y5661202D01*
X337032Y5659450D01*
X327405Y5658865D01*
G37*
G36*
X167386Y5912865D02*
G01*
X157759Y5913450D01*
X148259Y5915202D01*
X139039Y5918072D01*
X130225Y5922035D01*
X121945Y5927039D01*
X114350Y5932982D01*
X107518Y5939815D01*
X101549Y5947435D01*
X96570Y5955690D01*
X92608Y5964504D01*
X89712Y5973724D01*
X87985Y5983223D01*
X87401Y5992876D01*
X87985Y6002528D01*
X89712Y6012027D01*
X92608Y6021247D01*
X96570Y6030061D01*
X101549Y6038316D01*
X107518Y6045911D01*
X114350Y6052743D01*
X121945Y6058712D01*
X130225Y6063716D01*
X139039Y6067679D01*
X148259Y6070549D01*
X157759Y6072301D01*
X167386Y6072886D01*
X327405Y6072886D01*
X337032Y6072301D01*
X346532Y6070549D01*
X355777Y6067679D01*
X364566Y6063716D01*
X372846Y6058712D01*
X380441Y6052743D01*
X387273Y6045911D01*
X393242Y6038316D01*
X398246Y6030061D01*
X402209Y6021247D01*
X405079Y6012027D01*
X406806Y6002528D01*
X407390Y5992876D01*
X406806Y5983223D01*
X405079Y5973724D01*
X402209Y5964504D01*
X398246Y5955690D01*
X393242Y5947435D01*
X387273Y5939815D01*
X380441Y5932982D01*
X372846Y5927039D01*
X364566Y5922035D01*
X355777Y5918072D01*
X346532Y5915202D01*
X337032Y5913450D01*
X327405Y5912865D01*
G37*
G36*
X167386Y6166865D02*
G01*
X157759Y6167450D01*
X148259Y6169202D01*
X139039Y6172072D01*
X130225Y6176035D01*
X121945Y6181039D01*
X114350Y6186982D01*
X107518Y6193815D01*
X101549Y6201435D01*
X96570Y6209690D01*
X92608Y6218504D01*
X89712Y6227724D01*
X87985Y6237223D01*
X87401Y6246876D01*
X87985Y6256528D01*
X89712Y6266027D01*
X92608Y6275247D01*
X96570Y6284061D01*
X101549Y6292316D01*
X107518Y6299911D01*
X114350Y6306743D01*
X121945Y6312712D01*
X130225Y6317716D01*
X139039Y6321679D01*
X148259Y6324549D01*
X157759Y6326301D01*
X167386Y6326860D01*
X327405Y6326860D01*
X337032Y6326301D01*
X346532Y6324549D01*
X355777Y6321679D01*
X364566Y6317716D01*
X372846Y6312712D01*
X380441Y6306743D01*
X387273Y6299911D01*
X393242Y6292316D01*
X398246Y6284061D01*
X402209Y6275247D01*
X405079Y6266027D01*
X406806Y6256528D01*
X407390Y6246876D01*
X406806Y6237223D01*
X405079Y6227724D01*
X402209Y6218504D01*
X398246Y6209690D01*
X393242Y6201435D01*
X387273Y6193815D01*
X380441Y6186982D01*
X372846Y6181039D01*
X364566Y6176035D01*
X355777Y6172072D01*
X346532Y6169202D01*
X337032Y6167450D01*
X327405Y6166865D01*
G37*
G36*
X167386Y6420865D02*
G01*
X157759Y6421450D01*
X148259Y6423202D01*
X139039Y6426072D01*
X130225Y6430035D01*
X121945Y6435039D01*
X114350Y6440982D01*
X107518Y6447815D01*
X101549Y6455435D01*
X96570Y6463690D01*
X92608Y6472504D01*
X89712Y6481724D01*
X87985Y6491223D01*
X87401Y6500876D01*
X87985Y6510528D01*
X89712Y6520027D01*
X92608Y6529247D01*
X96570Y6538061D01*
X101549Y6546316D01*
X107518Y6553911D01*
X114350Y6560743D01*
X121945Y6566712D01*
X130225Y6571716D01*
X139039Y6575679D01*
X148259Y6578549D01*
X157759Y6580301D01*
X167386Y6580860D01*
X327405Y6580860D01*
X337032Y6580301D01*
X346532Y6578549D01*
X355777Y6575679D01*
X364566Y6571716D01*
X372846Y6566712D01*
X380441Y6560743D01*
X387273Y6553911D01*
X393242Y6546316D01*
X398246Y6538061D01*
X402209Y6529247D01*
X405079Y6520027D01*
X406806Y6510528D01*
X407390Y6500876D01*
X406806Y6491223D01*
X405079Y6481724D01*
X402209Y6472504D01*
X398246Y6463690D01*
X393242Y6455435D01*
X387273Y6447815D01*
X380441Y6440982D01*
X372846Y6435039D01*
X364566Y6430035D01*
X355777Y6426072D01*
X346532Y6423202D01*
X337032Y6421450D01*
X327405Y6420865D01*
G37*
D11*
G01*
X247396Y6754863D03*
G36*
X167386Y6928865D02*
G01*
X157759Y6929450D01*
X148259Y6931202D01*
X139039Y6934072D01*
X130225Y6938035D01*
X121945Y6943039D01*
X114350Y6948982D01*
X107518Y6955815D01*
X101549Y6963435D01*
X96570Y6971690D01*
X92608Y6980504D01*
X89712Y6989724D01*
X87985Y6999223D01*
X87401Y7008876D01*
X87985Y7018502D01*
X89712Y7028027D01*
X92608Y7037247D01*
X96570Y7046061D01*
X101549Y7054316D01*
X107518Y7061911D01*
X114350Y7068743D01*
X121945Y7074712D01*
X130225Y7079716D01*
X139039Y7083679D01*
X148259Y7086549D01*
X157759Y7088276D01*
X167386Y7088860D01*
X327405Y7088860D01*
X337032Y7088276D01*
X346532Y7086549D01*
X355777Y7083679D01*
X364566Y7079716D01*
X372846Y7074712D01*
X380441Y7068743D01*
X387273Y7061911D01*
X393242Y7054316D01*
X398246Y7046061D01*
X402209Y7037247D01*
X405079Y7028027D01*
X406806Y7018502D01*
X407390Y7008876D01*
X406806Y6999223D01*
X405079Y6989724D01*
X402209Y6980504D01*
X398246Y6971690D01*
X393242Y6963435D01*
X387273Y6955815D01*
X380441Y6948982D01*
X372846Y6943039D01*
X364566Y6938035D01*
X355777Y6934072D01*
X346532Y6931202D01*
X337032Y6929450D01*
X327405Y6928865D01*
G37*
G36*
X167386Y7182865D02*
G01*
X157759Y7183450D01*
X148259Y7185202D01*
X139039Y7188072D01*
X130225Y7192035D01*
X121945Y7197039D01*
X114350Y7202982D01*
X107518Y7209815D01*
X101549Y7217435D01*
X96570Y7225690D01*
X92608Y7234504D01*
X89712Y7243724D01*
X87985Y7253223D01*
X87401Y7262876D01*
X87985Y7272502D01*
X89712Y7282027D01*
X92608Y7291247D01*
X96570Y7300061D01*
X101549Y7308316D01*
X107518Y7315911D01*
X114350Y7322743D01*
X121945Y7328712D01*
X130225Y7333716D01*
X139039Y7337679D01*
X148259Y7340549D01*
X157759Y7342276D01*
X167386Y7342860D01*
X327405Y7342860D01*
X337032Y7342276D01*
X346532Y7340549D01*
X355777Y7337679D01*
X364566Y7333716D01*
X372846Y7328712D01*
X380441Y7322743D01*
X387273Y7315911D01*
X393242Y7308316D01*
X398246Y7300061D01*
X402209Y7291247D01*
X405079Y7282027D01*
X406806Y7272502D01*
X407390Y7262876D01*
X406806Y7253223D01*
X405079Y7243724D01*
X402209Y7234504D01*
X398246Y7225690D01*
X393242Y7217435D01*
X387273Y7209815D01*
X380441Y7202982D01*
X372846Y7197039D01*
X364566Y7192035D01*
X355777Y7188072D01*
X346532Y7185202D01*
X337032Y7183450D01*
X327405Y7182865D01*
G37*
G36*
X1119886Y2516886D02*
G01*
X1120470Y2526512D01*
X1122222Y2536037D01*
X1125093Y2545257D01*
X1129055Y2554046D01*
X1134059Y2562326D01*
X1140002Y2569921D01*
X1146835Y2576753D01*
X1154455Y2582722D01*
X1162710Y2587726D01*
X1171524Y2591688D01*
X1180744Y2594559D01*
X1190244Y2596286D01*
X1199895Y2596870D01*
X1209547Y2596286D01*
X1219047Y2594559D01*
X1228267Y2591688D01*
X1237081Y2587726D01*
X1245336Y2582722D01*
X1252956Y2576753D01*
X1259789Y2569921D01*
X1265732Y2562326D01*
X1270736Y2554046D01*
X1274698Y2545257D01*
X1277569Y2536037D01*
X1279321Y2526512D01*
X1279905Y2516886D01*
X1279905Y2356891D01*
X1279321Y2347239D01*
X1277569Y2337739D01*
X1274698Y2328519D01*
X1270736Y2319705D01*
X1265732Y2311425D01*
X1259789Y2303830D01*
X1252956Y2296998D01*
X1245336Y2291054D01*
X1237081Y2286050D01*
X1228267Y2282088D01*
X1219047Y2279218D01*
X1209547Y2277465D01*
X1199895Y2276881D01*
X1190244Y2277465D01*
X1180744Y2279218D01*
X1171524Y2282088D01*
X1162710Y2286050D01*
X1154455Y2291054D01*
X1146835Y2296998D01*
X1140002Y2303830D01*
X1134059Y2311425D01*
X1129055Y2319705D01*
X1125093Y2328519D01*
X1122222Y2337739D01*
X1120470Y2347239D01*
X1119886Y2356891D01*
G37*
G36*
X865886Y2516886D02*
G01*
X866470Y2526512D01*
X868222Y2536037D01*
X871093Y2545257D01*
X875055Y2554046D01*
X880059Y2562326D01*
X886028Y2569921D01*
X892835Y2576753D01*
X900455Y2582722D01*
X908710Y2587726D01*
X917524Y2591688D01*
X926744Y2594559D01*
X936244Y2596286D01*
X945895Y2596870D01*
X955547Y2596286D01*
X965047Y2594559D01*
X974267Y2591688D01*
X983081Y2587726D01*
X991336Y2582722D01*
X998956Y2576753D01*
X1005789Y2569921D01*
X1011732Y2562326D01*
X1016736Y2554046D01*
X1020698Y2545257D01*
X1023569Y2536037D01*
X1025321Y2526512D01*
X1025905Y2516886D01*
X1025905Y2356891D01*
X1025321Y2347239D01*
X1023569Y2337739D01*
X1020698Y2328519D01*
X1016736Y2319705D01*
X1011732Y2311425D01*
X1005789Y2303830D01*
X998956Y2296998D01*
X991336Y2291054D01*
X983081Y2286050D01*
X974267Y2282088D01*
X965047Y2279218D01*
X955547Y2277465D01*
X945895Y2276881D01*
X936244Y2277465D01*
X926744Y2279218D01*
X917524Y2282088D01*
X908710Y2286050D01*
X900455Y2291054D01*
X892835Y2296998D01*
X886028Y2303830D01*
X880059Y2311425D01*
X875055Y2319705D01*
X871093Y2328519D01*
X868222Y2337739D01*
X866470Y2347239D01*
X865886Y2356891D01*
G37*
G36*
X1373886Y2516886D02*
G01*
X1374470Y2526512D01*
X1376222Y2536037D01*
X1379093Y2545257D01*
X1383055Y2554046D01*
X1388059Y2562326D01*
X1394002Y2569921D01*
X1400835Y2576753D01*
X1408455Y2582722D01*
X1416710Y2587726D01*
X1425524Y2591688D01*
X1434744Y2594559D01*
X1444244Y2596286D01*
X1453895Y2596870D01*
X1463547Y2596286D01*
X1473047Y2594559D01*
X1482267Y2591688D01*
X1491081Y2587726D01*
X1499336Y2582722D01*
X1506956Y2576753D01*
X1513763Y2569921D01*
X1519732Y2562326D01*
X1524736Y2554046D01*
X1528698Y2545257D01*
X1531569Y2536037D01*
X1533321Y2526512D01*
X1533905Y2516886D01*
X1533905Y2356891D01*
X1533321Y2347239D01*
X1531569Y2337739D01*
X1528698Y2328519D01*
X1524736Y2319705D01*
X1519732Y2311425D01*
X1513763Y2303830D01*
X1506956Y2296998D01*
X1499336Y2291054D01*
X1491081Y2286050D01*
X1482267Y2282088D01*
X1473047Y2279218D01*
X1463547Y2277465D01*
X1453895Y2276881D01*
X1444244Y2277465D01*
X1434744Y2279218D01*
X1425524Y2282088D01*
X1416710Y2286050D01*
X1408455Y2291054D01*
X1400835Y2296998D01*
X1394002Y2303830D01*
X1388059Y2311425D01*
X1383055Y2319705D01*
X1379093Y2328519D01*
X1376222Y2337739D01*
X1374470Y2347239D01*
X1373886Y2356891D01*
G37*
D10*
G01*
X545007Y1124991D03*
G01*
X405003Y1124991D03*
M02*
