M48
METRIC,LZ,000.000
;FILE_FORMAT=3:3
;TYPE=PLATED
;Layer: PTH_Through
;EasyEDA v6.5.40, 2024-10-05 13:30:00
;a67cddfb3fce44daa9051d46cbbcc19f,10
;Gerber Generator version 0.2
;Holesize 1 = 0.306 mm
T01C0.306
;Holesize 2 = 0.310 mm
T02C0.310
;Holesize 3 = 0.551 mm
T03C0.551
;Holesize 4 = 0.889 mm
T04C0.889
;Holesize 5 = 0.915 mm
T05C0.915
;Holesize 6 = 1.000 mm
T06C1.000
;Holesize 7 = 1.101 mm
T07C1.101
%
G05
G90
T01
X008000Y011750
X005322Y089928
X005322Y085428
X005322Y080928
X009821Y098928
X009821Y089928
X009821Y085428
X009821Y080928
X014322Y098928
X014322Y085428
X014322Y080928
X018821Y089928
X018821Y085428
X018821Y080928
X001072Y020187
X001072Y015687
X001072Y011187
X005572Y069687
X005572Y065187
X005572Y060687
X005572Y056187
X005572Y051687
X010072Y056187
X010072Y047187
X010072Y038187
X010072Y033687
X010072Y029187
X010072Y020187
X010072Y006687
X018000Y072000
X014572Y051687
X014572Y047187
X014572Y042687
X014572Y038187
X014572Y033687
X014572Y029187
X014572Y020187
X014572Y006687
X019072Y065187
X019072Y060687
X019072Y015687
X019072Y011187
T02
X017000Y013024
X015000Y009750
X019000Y021250
X012750Y013250
X012000Y095000
X014500Y044750
X007781Y014219
T03
X016099Y078346G85X016099Y077096
X007899Y078346G85X007899Y077096
X016099Y082596G85X016099Y080946
X007899Y082596G85X007899Y080946
T04
X005480Y020500
X008020Y020500
X010540Y017000
X008000Y017000
T05
X005460Y017000
X002474Y072629
X002474Y070089
X002474Y067549
X002474Y065009
X002474Y062469
X002474Y059929
X002474Y057389
X002474Y054849
X002474Y052309
X002474Y049769
X002474Y047229
X002474Y044689
X002474Y042149
X002474Y039609
X002474Y037069
X002474Y034529
X002474Y031989
X002474Y029449
X002474Y026909
X002474Y024369
X009459Y024369
X011999Y024369
X014539Y024369
X021524Y024369
X021524Y026909
X021524Y029449
X021524Y031989
X021524Y034529
X021524Y037069
X021524Y039609
X021524Y042149
X021524Y044689
X021524Y047229
X021524Y049769
X021524Y052309
X021524Y054849
X021524Y057389
X021524Y059929
X021524Y062469
X021524Y065009
X021524Y067549
X021524Y070089
X021524Y072629
T06
X005500Y097167G85X005500Y095542
X018500Y097167G85X018500Y095542
X010750Y093645
X013250Y093645
X013250Y091645
X010750Y091645
T07
X013270Y003250
X010730Y003250
M30
