G04 Layer: TopSilkscreenLayer*
G04 EasyEDA v6.5.40, 2024-10-05 13:30:00*
G04 a67cddfb3fce44daa9051d46cbbcc19f,10*
G04 Gerber Generator version 0.2*
G04 Scale: 100 percent, Rotated: No, Reflected: No *
G04 Dimensions in millimeters *
G04 leading zeros omitted , absolute positions ,4 integer and 5 decimal *
%FSLAX45Y45*%
%MOMM*%

%ADD10C,0.1524*%
%ADD11C,0.2540*%
%ADD12C,0.2032*%
%ADD13C,0.1270*%
%ADD14C,0.2030*%
%ADD15C,0.4000*%
%ADD16C,0.0185*%

%LPD*%
D10*
X202945Y1414271D02*
G01*
X197865Y1424686D01*
X187452Y1435100D01*
X177037Y1440434D01*
X156210Y1440434D01*
X145795Y1435100D01*
X135381Y1424686D01*
X130302Y1414271D01*
X124968Y1398778D01*
X124968Y1372870D01*
X130302Y1357121D01*
X135381Y1346707D01*
X145795Y1336547D01*
X156210Y1331213D01*
X177037Y1331213D01*
X187452Y1336547D01*
X197865Y1346707D01*
X202945Y1357121D01*
X242315Y1414271D02*
G01*
X242315Y1419605D01*
X247650Y1430020D01*
X252729Y1435100D01*
X263144Y1440434D01*
X283971Y1440434D01*
X294386Y1435100D01*
X299465Y1430020D01*
X304800Y1419605D01*
X304800Y1409192D01*
X299465Y1398778D01*
X289305Y1383284D01*
X237236Y1331213D01*
X309879Y1331213D01*
X199999Y2090310D02*
G01*
X199999Y1981344D01*
X272643Y2090310D02*
G01*
X272643Y1981344D01*
X199999Y2038494D02*
G01*
X272643Y2038494D01*
X312267Y2064402D02*
G01*
X312267Y2069482D01*
X317347Y2079896D01*
X322681Y2085230D01*
X333095Y2090310D01*
X353669Y2090310D01*
X364083Y2085230D01*
X369417Y2079896D01*
X374497Y2069482D01*
X374497Y2059068D01*
X369417Y2048654D01*
X359003Y2033160D01*
X306933Y1981344D01*
X379831Y1981344D01*
X225000Y1765312D02*
G01*
X225000Y1656346D01*
X297644Y1765312D02*
G01*
X297644Y1656346D01*
X225000Y1713496D02*
G01*
X297644Y1713496D01*
X331934Y1744484D02*
G01*
X342348Y1749818D01*
X358096Y1765312D01*
X358096Y1656346D01*
X599897Y7215200D02*
G01*
X599897Y7137476D01*
X605231Y7121728D01*
X615645Y7111314D01*
X631139Y7106234D01*
X641553Y7106234D01*
X657047Y7111314D01*
X667461Y7121728D01*
X672795Y7137476D01*
X672795Y7215200D01*
X707085Y7194626D02*
G01*
X717499Y7199706D01*
X732993Y7215200D01*
X732993Y7106234D01*
X1223403Y8849169D02*
G01*
X1223403Y8927147D01*
X1218323Y8942641D01*
X1207909Y8953055D01*
X1192161Y8958135D01*
X1181747Y8958135D01*
X1166253Y8953055D01*
X1155839Y8942641D01*
X1150759Y8927147D01*
X1150759Y8849169D01*
X1043571Y8864663D02*
G01*
X1053985Y8854249D01*
X1069733Y8849169D01*
X1090307Y8849169D01*
X1106055Y8854249D01*
X1116469Y8864663D01*
X1116469Y8875077D01*
X1111135Y8885491D01*
X1106055Y8890825D01*
X1095641Y8895905D01*
X1064399Y8906319D01*
X1053985Y8911399D01*
X1048905Y8916733D01*
X1043571Y8927147D01*
X1043571Y8942641D01*
X1053985Y8953055D01*
X1069733Y8958135D01*
X1090307Y8958135D01*
X1106055Y8953055D01*
X1116469Y8942641D01*
X1009281Y8849169D02*
G01*
X1009281Y8958135D01*
X1009281Y8849169D02*
G01*
X962545Y8849169D01*
X947051Y8854249D01*
X941717Y8859583D01*
X936637Y8869997D01*
X936637Y8880411D01*
X941717Y8890825D01*
X947051Y8895905D01*
X962545Y8900985D01*
X1009281Y8900985D02*
G01*
X962545Y8900985D01*
X947051Y8906319D01*
X941717Y8911399D01*
X936637Y8921813D01*
X936637Y8937561D01*
X941717Y8947975D01*
X947051Y8953055D01*
X962545Y8958135D01*
X1009281Y8958135D01*
X897013Y8875077D02*
G01*
X897013Y8869997D01*
X891933Y8859583D01*
X886853Y8854249D01*
X876439Y8849169D01*
X855611Y8849169D01*
X845197Y8854249D01*
X839863Y8859583D01*
X834783Y8869997D01*
X834783Y8880411D01*
X839863Y8890825D01*
X850277Y8906319D01*
X902347Y8958135D01*
X829703Y8958135D01*
X202979Y1164407D02*
G01*
X197645Y1174821D01*
X187231Y1185235D01*
X177071Y1190315D01*
X156243Y1190315D01*
X145829Y1185235D01*
X135415Y1174821D01*
X130081Y1164407D01*
X125001Y1148659D01*
X125001Y1122751D01*
X130081Y1107257D01*
X135415Y1096843D01*
X145829Y1086429D01*
X156243Y1081349D01*
X177071Y1081349D01*
X187231Y1086429D01*
X197645Y1096843D01*
X202979Y1107257D01*
X237269Y1169487D02*
G01*
X247683Y1174821D01*
X263177Y1190315D01*
X263177Y1081349D01*
X1152055Y165328D02*
G01*
X1152055Y82270D01*
X1146721Y66522D01*
X1141641Y61442D01*
X1131227Y56362D01*
X1120813Y56362D01*
X1110399Y61442D01*
X1105065Y66522D01*
X1099985Y82270D01*
X1099985Y92684D01*
X1186345Y144500D02*
G01*
X1196505Y149834D01*
X1212253Y165328D01*
X1212253Y56362D01*
X1374998Y1290325D02*
G01*
X1374998Y1212347D01*
X1380078Y1196853D01*
X1390492Y1186439D01*
X1406240Y1181359D01*
X1416654Y1181359D01*
X1432148Y1186439D01*
X1442562Y1196853D01*
X1447642Y1212347D01*
X1447642Y1290325D01*
X1492346Y1290325D02*
G01*
X1549496Y1290325D01*
X1518508Y1248669D01*
X1534002Y1248669D01*
X1544416Y1243589D01*
X1549496Y1238509D01*
X1554830Y1222761D01*
X1554830Y1212347D01*
X1549496Y1196853D01*
X1539082Y1186439D01*
X1523588Y1181359D01*
X1508094Y1181359D01*
X1492346Y1186439D01*
X1487266Y1191519D01*
X1481932Y1201933D01*
X1500123Y8515350D02*
G01*
X1500123Y8437371D01*
X1505204Y8421878D01*
X1515618Y8411463D01*
X1531112Y8406129D01*
X1541526Y8406129D01*
X1557273Y8411463D01*
X1567434Y8421878D01*
X1572768Y8437371D01*
X1572768Y8515350D01*
X1679702Y8499855D02*
G01*
X1669287Y8510015D01*
X1653794Y8515350D01*
X1632965Y8515350D01*
X1617471Y8510015D01*
X1607057Y8499855D01*
X1607057Y8489442D01*
X1612137Y8479028D01*
X1617471Y8473694D01*
X1627886Y8468613D01*
X1658873Y8458200D01*
X1669287Y8452865D01*
X1674621Y8447786D01*
X1679702Y8437371D01*
X1679702Y8421878D01*
X1669287Y8411463D01*
X1653794Y8406129D01*
X1632965Y8406129D01*
X1617471Y8411463D01*
X1607057Y8421878D01*
X1713992Y8515350D02*
G01*
X1713992Y8406129D01*
X1713992Y8515350D02*
G01*
X1760728Y8515350D01*
X1776476Y8510015D01*
X1781555Y8504936D01*
X1786889Y8494521D01*
X1786889Y8484108D01*
X1781555Y8473694D01*
X1776476Y8468613D01*
X1760728Y8463279D01*
X1713992Y8463279D02*
G01*
X1760728Y8463279D01*
X1776476Y8458200D01*
X1781555Y8452865D01*
X1786889Y8442705D01*
X1786889Y8426958D01*
X1781555Y8416544D01*
X1776476Y8411463D01*
X1760728Y8406129D01*
X1713992Y8406129D01*
X1821179Y8494521D02*
G01*
X1831594Y8499855D01*
X1847087Y8515350D01*
X1847087Y8406129D01*
D11*
X613981Y1414879D02*
G01*
X613981Y1334876D01*
X503006Y1445864D02*
G01*
X583003Y1445864D01*
X503006Y1303898D02*
G01*
X583003Y1303898D01*
X445416Y1446446D02*
G01*
X365417Y1446446D01*
X334434Y1415463D02*
G01*
X334434Y1335465D01*
X445416Y1304485D02*
G01*
X365417Y1304485D01*
D12*
X928999Y2176995D02*
G01*
X928999Y1925535D01*
X420999Y1925535D01*
X420999Y2176995D01*
X928999Y2176995D01*
X672998Y1572996D02*
G01*
X418998Y1572996D01*
X418998Y1824456D01*
X1180998Y1824456D01*
X1180998Y1572996D01*
X672998Y1572996D01*
D13*
X1599895Y7399858D02*
G01*
X1599895Y6949871D01*
X799896Y6949871D01*
X799896Y7399858D01*
X799896Y7549870D01*
X1599895Y7549870D01*
X1599895Y7399858D01*
X149885Y7399858D02*
G01*
X799896Y7399858D01*
X1599895Y7399858D01*
X2249906Y7399858D01*
X2249906Y2299868D01*
X149885Y2299868D01*
X149885Y7399858D01*
X793495Y6907276D02*
G01*
X1199895Y6907276D01*
X1199895Y5916676D01*
X793495Y5916676D01*
X793495Y6907276D01*
D11*
X592503Y9833521D02*
G01*
X592503Y10680484D01*
X592503Y9050484D02*
G01*
X592503Y9437448D01*
X1807502Y9833521D02*
G01*
X1807502Y10680484D01*
X1807502Y9050484D02*
G01*
X1807502Y9437448D01*
X1807502Y9050484D02*
G01*
X592503Y9050484D01*
X1807502Y10680484D02*
G01*
X592503Y10680484D01*
X614001Y1164976D02*
G01*
X614001Y1084973D01*
X503026Y1195961D02*
G01*
X583023Y1195961D01*
X503026Y1053995D02*
G01*
X583023Y1053995D01*
X445437Y1196543D02*
G01*
X365437Y1196543D01*
X334454Y1165560D02*
G01*
X334454Y1085562D01*
X445437Y1054582D02*
G01*
X365437Y1054582D01*
D14*
X945997Y197998D02*
G01*
X1263497Y197998D01*
D12*
X945997Y197998D02*
G01*
X945997Y451998D01*
X1453997Y451998D01*
X1453997Y197998D01*
X1263497Y197998D01*
D11*
X1349987Y849983D02*
G01*
X1349987Y889177D01*
X1349987Y1110404D02*
G01*
X1349987Y1149985D01*
X1049985Y1149985D02*
G01*
X1049985Y1110404D01*
X1049985Y889177D02*
G01*
X1049985Y849983D01*
X1349987Y849983D02*
G01*
X1310459Y849983D01*
X1089385Y849983D02*
G01*
X1049985Y849983D01*
X1349987Y1149985D02*
G01*
X1310459Y1149985D01*
X1089233Y1149985D02*
G01*
X1049985Y1149985D01*
X1619897Y7587140D02*
G01*
X779896Y7587140D01*
X857504Y6977126D02*
G01*
X857504Y7587134D01*
X1619897Y7914599D02*
G01*
X1619897Y8014662D01*
X1619897Y7587140D02*
G01*
X1619897Y7629664D01*
X779896Y7629662D02*
G01*
X779896Y7587140D01*
X1542287Y6977126D02*
G01*
X1542287Y7587134D01*
X857504Y6977126D02*
G01*
X911860Y6977126D01*
X1542287Y6977126D01*
X779896Y8014660D02*
G01*
X779896Y7914601D01*
X1029281Y8256879D02*
G01*
X868011Y8256879D01*
X1531782Y8256879D02*
G01*
X1370510Y8256879D01*
G75*
G01*
X334429Y1415463D02*
G02*
X365412Y1446446I30983J0D01*
G75*
G01*
X365412Y1304481D02*
G02*
X334429Y1335466I0J30982D01*
G75*
G01*
X582999Y1445865D02*
G02*
X613982Y1414879I0J-30983D01*
G75*
G01*
X613982Y1334882D02*
G02*
X582999Y1303899I-30983J0D01*
G75*
G01*
X334449Y1165560D02*
G02*
X365432Y1196543I30983J0D01*
G75*
G01*
X365432Y1054578D02*
G02*
X334449Y1085563I0J30982D01*
G75*
G01*
X583019Y1195962D02*
G02*
X614002Y1164976I0J-30983D01*
G75*
G01*
X614002Y1084979D02*
G02*
X583019Y1053996I-30983J0D01*
G75*
G01
X1334338Y1184453D02*
G03X1334338Y1184453I-5436J0D01*
D15*
G75*
G01
X1419885Y8339887D02*
G03X1419885Y8339887I-19990J0D01*
M02*
