G04 Layer: TopSolderMaskLayer*
G04 EasyEDA v6.5.40, 2024-10-05 13:30:00*
G04 a67cddfb3fce44daa9051d46cbbcc19f,10*
G04 Gerber Generator version 0.2*
G04 Scale: 100 percent, Rotated: No, Reflected: No *
G04 Dimensions in millimeters *
G04 leading zeros omitted , absolute positions ,4 integer and 5 decimal *
%FSLAX45Y45*%
%MOMM*%

%AMMACRO1*1,1,$1,$2,$3*1,1,$1,$4,$5*1,1,$1,0-$2,0-$3*1,1,$1,0-$4,0-$5*20,1,$1,$2,$3,$4,$5,0*20,1,$1,$4,$5,0-$2,0-$3,0*20,1,$1,0-$2,0-$3,0-$4,0-$5,0*20,1,$1,0-$4,0-$5,$2,$3,0*4,1,4,$2,$3,$4,$5,0-$2,0-$3,0-$4,0-$5,$2,$3,0*%
%AMMACRO2*4,1,4,-1.6507,-0.8508,-1.6507,0.8508,1.6507,0.8508,1.6507,-0.8508,-1.6507,-0.8508,0*%
%AMMACRO3*4,1,4,-1.6507,-0.8509,-1.6507,0.8509,1.6507,0.8509,1.6507,-0.8509,-1.6507,-0.8509,0*%
%ADD10MACRO1,0.1016X-0.4X0.45X0.4X0.45*%
%ADD11MACRO1,0.1016X0.7874X0.7874X0.7874X-0.7874*%
%ADD12C,1.6764*%
%ADD13MACRO1,0.1016X0.7874X-0.7874X-0.7874X-0.7874*%
%ADD14MACRO2*%
%ADD15MACRO3*%
%ADD16C,1.5240*%
%ADD17O,1.1015979999999999X3.6015930000000003*%
%ADD18C,1.7016*%
%ADD19MACRO1,0.1016X0.85X-0.7874X-0.85X-0.7874*%
%ADD20C,1.8016*%
%ADD21MACRO1,0.1016X-0.125X0.3X0.125X0.3*%
%ADD22R,0.7016X0.3516*%
%ADD23MACRO1,0.1016X0.125X-0.3X-0.125X-0.3*%
%ADD24MACRO1,0.1016X0.3X0.125X0.3X-0.125*%
%ADD25MACRO1,0.1016X0.75X0.75X0.75X-0.75*%
%ADD26MACRO1,0.1016X0.175X-1.625X-0.175X-1.625*%
%ADD27O,1.2015978000000003X2.5015952*%
%ADD28O,1.2015978000000003X2.9015944*%
%ADD29O,0.0162X2.9015944*%

%LPD*%
D10*
G01*
X544979Y1374901D03*
G01*
X404980Y1374901D03*
D11*
G01*
X547999Y2049995D03*
D12*
G01*
X802004Y2049983D03*
D13*
G01*
X1053998Y1699996D03*
D12*
G01*
X799998Y1699996D03*
G01*
X545998Y1699996D03*
G36*
X2072233Y7177786D02*
G01*
X2062149Y7178395D01*
X2052040Y7180249D01*
X2042210Y7183323D01*
X2032863Y7187539D01*
X2024049Y7192848D01*
X2015972Y7199172D01*
X2008708Y7206437D01*
X2002358Y7214539D01*
X1997049Y7223328D01*
X1992833Y7232700D01*
X1989759Y7242505D01*
X1987931Y7252614D01*
X1987321Y7262876D01*
X1987931Y7273112D01*
X1989759Y7283246D01*
X1992833Y7293051D01*
X1997049Y7302423D01*
X2002358Y7311212D01*
X2008708Y7319289D01*
X2015972Y7326553D01*
X2024049Y7332903D01*
X2032863Y7338212D01*
X2042210Y7342428D01*
X2052040Y7345502D01*
X2062149Y7347330D01*
X2072233Y7347940D01*
X2232558Y7347940D01*
X2242642Y7347330D01*
X2252751Y7345502D01*
X2262555Y7342428D01*
X2271928Y7338212D01*
X2280742Y7332903D01*
X2288819Y7326553D01*
X2296083Y7319289D01*
X2302433Y7311212D01*
X2307716Y7302423D01*
X2311933Y7293051D01*
X2315032Y7283246D01*
X2316861Y7273112D01*
X2317470Y7262876D01*
X2316861Y7252614D01*
X2315032Y7242505D01*
X2311933Y7232700D01*
X2307716Y7223328D01*
X2302433Y7214539D01*
X2296083Y7206437D01*
X2288819Y7199172D01*
X2280742Y7192848D01*
X2271928Y7187539D01*
X2262555Y7183323D01*
X2252751Y7180249D01*
X2242642Y7178395D01*
X2232558Y7177786D01*
G37*
G36*
X2072233Y6923786D02*
G01*
X2062149Y6924395D01*
X2052040Y6926249D01*
X2042210Y6929323D01*
X2032863Y6933539D01*
X2024049Y6938848D01*
X2015972Y6945172D01*
X2008708Y6952437D01*
X2002358Y6960539D01*
X1997049Y6969328D01*
X1992833Y6978700D01*
X1989759Y6988505D01*
X1987931Y6998614D01*
X1987321Y7008876D01*
X1987931Y7019112D01*
X1989759Y7029246D01*
X1992833Y7039051D01*
X1997049Y7048423D01*
X2002358Y7057212D01*
X2008708Y7065289D01*
X2015972Y7072553D01*
X2024049Y7078903D01*
X2032863Y7084212D01*
X2042210Y7088428D01*
X2052040Y7091502D01*
X2062149Y7093330D01*
X2072233Y7093940D01*
X2232558Y7093940D01*
X2242642Y7093330D01*
X2252751Y7091502D01*
X2262555Y7088428D01*
X2271928Y7084212D01*
X2280742Y7078903D01*
X2288819Y7072553D01*
X2296083Y7065289D01*
X2302433Y7057212D01*
X2307716Y7048423D01*
X2311933Y7039051D01*
X2315032Y7029246D01*
X2316861Y7019112D01*
X2317470Y7008876D01*
X2316861Y6998614D01*
X2315032Y6988505D01*
X2311933Y6978700D01*
X2307716Y6969328D01*
X2302433Y6960539D01*
X2296083Y6952437D01*
X2288819Y6945172D01*
X2280742Y6938848D01*
X2271928Y6933539D01*
X2262555Y6929323D01*
X2252751Y6926249D01*
X2242642Y6924395D01*
X2232558Y6923786D01*
G37*
D14*
G01*
X2152395Y6754863D03*
G36*
X2072233Y6415786D02*
G01*
X2062149Y6416395D01*
X2052040Y6418249D01*
X2042210Y6421323D01*
X2032863Y6425539D01*
X2024049Y6430848D01*
X2015972Y6437172D01*
X2008708Y6444437D01*
X2002358Y6452539D01*
X1997049Y6461328D01*
X1992833Y6470700D01*
X1989759Y6480505D01*
X1987931Y6490614D01*
X1987321Y6500876D01*
X1987931Y6511137D01*
X1989759Y6521246D01*
X1992833Y6531051D01*
X1997049Y6540423D01*
X2002358Y6549212D01*
X2008708Y6557289D01*
X2015972Y6564553D01*
X2024049Y6570903D01*
X2032863Y6576212D01*
X2042210Y6580428D01*
X2052040Y6583502D01*
X2062149Y6585356D01*
X2072233Y6585940D01*
X2232558Y6585940D01*
X2242642Y6585356D01*
X2252751Y6583502D01*
X2262555Y6580428D01*
X2271928Y6576212D01*
X2280742Y6570903D01*
X2288819Y6564553D01*
X2296083Y6557289D01*
X2302433Y6549212D01*
X2307716Y6540423D01*
X2311933Y6531051D01*
X2315032Y6521246D01*
X2316861Y6511137D01*
X2317470Y6500876D01*
X2316861Y6490614D01*
X2315032Y6480505D01*
X2311933Y6470700D01*
X2307716Y6461328D01*
X2302433Y6452539D01*
X2296083Y6444437D01*
X2288819Y6437172D01*
X2280742Y6430848D01*
X2271928Y6425539D01*
X2262555Y6421323D01*
X2252751Y6418249D01*
X2242642Y6416395D01*
X2232558Y6415786D01*
G37*
G36*
X2072233Y6161786D02*
G01*
X2062149Y6162395D01*
X2052040Y6164249D01*
X2042210Y6167323D01*
X2032863Y6171539D01*
X2024049Y6176848D01*
X2015972Y6183172D01*
X2008708Y6190437D01*
X2002358Y6198539D01*
X1997049Y6207328D01*
X1992833Y6216700D01*
X1989759Y6226505D01*
X1987931Y6236614D01*
X1987321Y6246876D01*
X1987931Y6257137D01*
X1989759Y6267246D01*
X1992833Y6277051D01*
X1997049Y6286423D01*
X2002358Y6295212D01*
X2008708Y6303289D01*
X2015972Y6310553D01*
X2024049Y6316903D01*
X2032863Y6322212D01*
X2042210Y6326428D01*
X2052040Y6329502D01*
X2062149Y6331356D01*
X2072233Y6331940D01*
X2232558Y6331940D01*
X2242642Y6331356D01*
X2252751Y6329502D01*
X2262555Y6326428D01*
X2271928Y6322212D01*
X2280742Y6316903D01*
X2288819Y6310553D01*
X2296083Y6303289D01*
X2302433Y6295212D01*
X2307716Y6286423D01*
X2311933Y6277051D01*
X2315032Y6267246D01*
X2316861Y6257137D01*
X2317470Y6246876D01*
X2316861Y6236614D01*
X2315032Y6226505D01*
X2311933Y6216700D01*
X2307716Y6207328D01*
X2302433Y6198539D01*
X2296083Y6190437D01*
X2288819Y6183172D01*
X2280742Y6176848D01*
X2271928Y6171539D01*
X2262555Y6167323D01*
X2252751Y6164249D01*
X2242642Y6162395D01*
X2232558Y6161786D01*
G37*
G36*
X2072233Y5907786D02*
G01*
X2062149Y5908395D01*
X2052040Y5910249D01*
X2042210Y5913323D01*
X2032863Y5917539D01*
X2024049Y5922848D01*
X2015972Y5929172D01*
X2008708Y5936437D01*
X2002358Y5944539D01*
X1997049Y5953328D01*
X1992833Y5962700D01*
X1989759Y5972505D01*
X1987931Y5982614D01*
X1987321Y5992876D01*
X1987931Y6003137D01*
X1989759Y6013246D01*
X1992833Y6023051D01*
X1997049Y6032423D01*
X2002358Y6041212D01*
X2008708Y6049289D01*
X2015972Y6056553D01*
X2024049Y6062903D01*
X2032863Y6068212D01*
X2042210Y6072428D01*
X2052040Y6075502D01*
X2062149Y6077356D01*
X2072233Y6077965D01*
X2232558Y6077965D01*
X2242642Y6077356D01*
X2252751Y6075502D01*
X2262555Y6072428D01*
X2271928Y6068212D01*
X2280742Y6062903D01*
X2288819Y6056553D01*
X2296083Y6049289D01*
X2302433Y6041212D01*
X2307716Y6032423D01*
X2311933Y6023051D01*
X2315032Y6013246D01*
X2316861Y6003137D01*
X2317470Y5992876D01*
X2316861Y5982614D01*
X2315032Y5972505D01*
X2311933Y5962700D01*
X2307716Y5953328D01*
X2302433Y5944539D01*
X2296083Y5936437D01*
X2288819Y5929172D01*
X2280742Y5922848D01*
X2271928Y5917539D01*
X2262555Y5913323D01*
X2252751Y5910249D01*
X2242642Y5908395D01*
X2232558Y5907786D01*
G37*
G36*
X2072233Y5653786D02*
G01*
X2062149Y5654395D01*
X2052040Y5656249D01*
X2042210Y5659323D01*
X2032863Y5663539D01*
X2024049Y5668848D01*
X2015972Y5675172D01*
X2008708Y5682437D01*
X2002358Y5690539D01*
X1997049Y5699328D01*
X1992833Y5708700D01*
X1989759Y5718505D01*
X1987931Y5728614D01*
X1987321Y5738876D01*
X1987931Y5749137D01*
X1989759Y5759246D01*
X1992833Y5769051D01*
X1997049Y5778423D01*
X2002358Y5787212D01*
X2008708Y5795314D01*
X2015972Y5802553D01*
X2024049Y5808903D01*
X2032863Y5814212D01*
X2042210Y5818428D01*
X2052040Y5821502D01*
X2062149Y5823356D01*
X2072233Y5823965D01*
X2232558Y5823965D01*
X2242642Y5823356D01*
X2252751Y5821502D01*
X2262555Y5818428D01*
X2271928Y5814212D01*
X2280742Y5808903D01*
X2288819Y5802553D01*
X2296083Y5795314D01*
X2302433Y5787212D01*
X2307716Y5778423D01*
X2311933Y5769051D01*
X2315032Y5759246D01*
X2316861Y5749137D01*
X2317470Y5738876D01*
X2316861Y5728614D01*
X2315032Y5718505D01*
X2311933Y5708700D01*
X2307716Y5699328D01*
X2302433Y5690539D01*
X2296083Y5682437D01*
X2288819Y5675172D01*
X2280742Y5668848D01*
X2271928Y5663539D01*
X2262555Y5659323D01*
X2252751Y5656249D01*
X2242642Y5654395D01*
X2232558Y5653786D01*
G37*
D15*
G01*
X2152395Y5484876D03*
G36*
X2072233Y5145786D02*
G01*
X2062149Y5146395D01*
X2052040Y5148249D01*
X2042210Y5151323D01*
X2032863Y5155539D01*
X2024049Y5160848D01*
X2015972Y5167172D01*
X2008708Y5174437D01*
X2002358Y5182539D01*
X1997049Y5191328D01*
X1992833Y5200700D01*
X1989759Y5210505D01*
X1987931Y5220614D01*
X1987321Y5230876D01*
X1987931Y5241137D01*
X1989759Y5251246D01*
X1992833Y5261051D01*
X1997049Y5270423D01*
X2002358Y5279212D01*
X2008708Y5287314D01*
X2015972Y5294553D01*
X2024049Y5300903D01*
X2032863Y5306212D01*
X2042210Y5310428D01*
X2052040Y5313502D01*
X2062149Y5315356D01*
X2072233Y5315965D01*
X2232558Y5315965D01*
X2242642Y5315356D01*
X2252751Y5313502D01*
X2262555Y5310428D01*
X2271928Y5306212D01*
X2280742Y5300903D01*
X2288819Y5294553D01*
X2296083Y5287314D01*
X2302433Y5279212D01*
X2307716Y5270423D01*
X2311933Y5261051D01*
X2315032Y5251246D01*
X2316861Y5241137D01*
X2317470Y5230876D01*
X2316861Y5220614D01*
X2315032Y5210505D01*
X2311933Y5200700D01*
X2307716Y5191328D01*
X2302433Y5182539D01*
X2296083Y5174437D01*
X2288819Y5167172D01*
X2280742Y5160848D01*
X2271928Y5155539D01*
X2262555Y5151323D01*
X2252751Y5148249D01*
X2242642Y5146395D01*
X2232558Y5145786D01*
G37*
G36*
X2072233Y4891786D02*
G01*
X2062149Y4892395D01*
X2052040Y4894249D01*
X2042210Y4897323D01*
X2032863Y4901539D01*
X2024049Y4906848D01*
X2015972Y4913172D01*
X2008708Y4920437D01*
X2002358Y4928539D01*
X1997049Y4937328D01*
X1992833Y4946700D01*
X1989759Y4956505D01*
X1987931Y4966614D01*
X1987321Y4976876D01*
X1987931Y4987137D01*
X1989759Y4997246D01*
X1992833Y5007051D01*
X1997049Y5016423D01*
X2002358Y5025212D01*
X2008708Y5033314D01*
X2015972Y5040553D01*
X2024049Y5046903D01*
X2032863Y5052212D01*
X2042210Y5056428D01*
X2052040Y5059502D01*
X2062149Y5061356D01*
X2072233Y5061965D01*
X2232558Y5061965D01*
X2242642Y5061356D01*
X2252751Y5059502D01*
X2262555Y5056428D01*
X2271928Y5052212D01*
X2280742Y5046903D01*
X2288819Y5040553D01*
X2296083Y5033314D01*
X2302433Y5025212D01*
X2307716Y5016423D01*
X2311933Y5007051D01*
X2315032Y4997246D01*
X2316861Y4987137D01*
X2317470Y4976876D01*
X2316861Y4966614D01*
X2315032Y4956505D01*
X2311933Y4946700D01*
X2307716Y4937328D01*
X2302433Y4928539D01*
X2296083Y4920437D01*
X2288819Y4913172D01*
X2280742Y4906848D01*
X2271928Y4901539D01*
X2262555Y4897323D01*
X2252751Y4894249D01*
X2242642Y4892395D01*
X2232558Y4891786D01*
G37*
G36*
X2072233Y4637786D02*
G01*
X2062149Y4638395D01*
X2052040Y4640249D01*
X2042210Y4643323D01*
X2032863Y4647539D01*
X2024049Y4652848D01*
X2015972Y4659198D01*
X2008708Y4666437D01*
X2002358Y4674539D01*
X1997049Y4683328D01*
X1992833Y4692700D01*
X1989759Y4702505D01*
X1987931Y4712614D01*
X1987321Y4722876D01*
X1987931Y4733137D01*
X1989759Y4743246D01*
X1992833Y4753051D01*
X1997049Y4762423D01*
X2002358Y4771212D01*
X2008708Y4779314D01*
X2015972Y4786579D01*
X2024049Y4792903D01*
X2032863Y4798212D01*
X2042210Y4802428D01*
X2052040Y4805502D01*
X2062149Y4807356D01*
X2072233Y4807965D01*
X2232558Y4807965D01*
X2242642Y4807356D01*
X2252751Y4805502D01*
X2262555Y4802428D01*
X2271928Y4798212D01*
X2280742Y4792903D01*
X2288819Y4786579D01*
X2296083Y4779314D01*
X2302433Y4771212D01*
X2307716Y4762423D01*
X2311933Y4753051D01*
X2315032Y4743246D01*
X2316861Y4733137D01*
X2317470Y4722876D01*
X2316861Y4712614D01*
X2315032Y4702505D01*
X2311933Y4692700D01*
X2307716Y4683328D01*
X2302433Y4674539D01*
X2296083Y4666437D01*
X2288819Y4659198D01*
X2280742Y4652848D01*
X2271928Y4647539D01*
X2262555Y4643323D01*
X2252751Y4640249D01*
X2242642Y4638395D01*
X2232558Y4637786D01*
G37*
G36*
X2072233Y4383786D02*
G01*
X2062149Y4384395D01*
X2052040Y4386249D01*
X2042210Y4389323D01*
X2032863Y4393539D01*
X2024049Y4398848D01*
X2015972Y4405198D01*
X2008708Y4412437D01*
X2002358Y4420539D01*
X1997049Y4429328D01*
X1992833Y4438700D01*
X1989759Y4448505D01*
X1987931Y4458614D01*
X1987321Y4468876D01*
X1987931Y4479137D01*
X1989759Y4489246D01*
X1992833Y4499051D01*
X1997049Y4508423D01*
X2002358Y4517212D01*
X2008708Y4525314D01*
X2015972Y4532579D01*
X2024049Y4538903D01*
X2032863Y4544212D01*
X2042210Y4548428D01*
X2052040Y4551502D01*
X2062149Y4553356D01*
X2072233Y4553965D01*
X2232558Y4553965D01*
X2242642Y4553356D01*
X2252751Y4551502D01*
X2262555Y4548428D01*
X2271928Y4544212D01*
X2280742Y4538903D01*
X2288819Y4532579D01*
X2296083Y4525314D01*
X2302433Y4517212D01*
X2307716Y4508423D01*
X2311933Y4499051D01*
X2315032Y4489246D01*
X2316861Y4479137D01*
X2317470Y4468876D01*
X2316861Y4458614D01*
X2315032Y4448505D01*
X2311933Y4438700D01*
X2307716Y4429328D01*
X2302433Y4420539D01*
X2296083Y4412437D01*
X2288819Y4405198D01*
X2280742Y4398848D01*
X2271928Y4393539D01*
X2262555Y4389323D01*
X2252751Y4386249D01*
X2242642Y4384395D01*
X2232558Y4383786D01*
G37*
G01*
X2152395Y4214876D03*
G36*
X2072233Y3875786D02*
G01*
X2062149Y3876395D01*
X2052040Y3878249D01*
X2042210Y3881323D01*
X2032863Y3885539D01*
X2024049Y3890848D01*
X2015972Y3897198D01*
X2008708Y3904437D01*
X2002358Y3912539D01*
X1997049Y3921328D01*
X1992833Y3930700D01*
X1989759Y3940505D01*
X1987931Y3950614D01*
X1987321Y3960876D01*
X1987931Y3971137D01*
X1989759Y3981246D01*
X1992833Y3991051D01*
X1997049Y4000423D01*
X2002358Y4009212D01*
X2008708Y4017314D01*
X2015972Y4024579D01*
X2024049Y4030903D01*
X2032863Y4036212D01*
X2042210Y4040428D01*
X2052040Y4043502D01*
X2062149Y4045356D01*
X2072233Y4045965D01*
X2232558Y4045965D01*
X2242642Y4045356D01*
X2252751Y4043502D01*
X2262555Y4040428D01*
X2271928Y4036212D01*
X2280742Y4030903D01*
X2288819Y4024579D01*
X2296083Y4017314D01*
X2302433Y4009212D01*
X2307716Y4000423D01*
X2311933Y3991051D01*
X2315032Y3981246D01*
X2316861Y3971137D01*
X2317470Y3960876D01*
X2316861Y3950614D01*
X2315032Y3940505D01*
X2311933Y3930700D01*
X2307716Y3921328D01*
X2302433Y3912539D01*
X2296083Y3904437D01*
X2288819Y3897198D01*
X2280742Y3890848D01*
X2271928Y3885539D01*
X2262555Y3881323D01*
X2252751Y3878249D01*
X2242642Y3876395D01*
X2232558Y3875786D01*
G37*
G36*
X2072233Y3621786D02*
G01*
X2062149Y3622395D01*
X2052040Y3624249D01*
X2042210Y3627323D01*
X2032863Y3631539D01*
X2024049Y3636848D01*
X2015972Y3643198D01*
X2008708Y3650462D01*
X2002358Y3658539D01*
X1997049Y3667328D01*
X1992833Y3676700D01*
X1989759Y3686505D01*
X1987931Y3696614D01*
X1987321Y3706876D01*
X1987931Y3717137D01*
X1989759Y3727246D01*
X1992833Y3737051D01*
X1997049Y3746423D01*
X2002358Y3755212D01*
X2008708Y3763314D01*
X2015972Y3770579D01*
X2024049Y3776903D01*
X2032863Y3782212D01*
X2042210Y3786428D01*
X2052040Y3789502D01*
X2062149Y3791356D01*
X2072233Y3791965D01*
X2232558Y3791965D01*
X2242642Y3791356D01*
X2252751Y3789502D01*
X2262555Y3786428D01*
X2271928Y3782212D01*
X2280742Y3776903D01*
X2288819Y3770579D01*
X2296083Y3763314D01*
X2302433Y3755212D01*
X2307716Y3746423D01*
X2311933Y3737051D01*
X2315032Y3727246D01*
X2316861Y3717137D01*
X2317470Y3706876D01*
X2316861Y3696614D01*
X2315032Y3686505D01*
X2311933Y3676700D01*
X2307716Y3667328D01*
X2302433Y3658539D01*
X2296083Y3650462D01*
X2288819Y3643198D01*
X2280742Y3636848D01*
X2271928Y3631539D01*
X2262555Y3627323D01*
X2252751Y3624249D01*
X2242642Y3622395D01*
X2232558Y3621786D01*
G37*
G36*
X2072233Y3367811D02*
G01*
X2062149Y3368395D01*
X2052040Y3370249D01*
X2042210Y3373323D01*
X2032863Y3377539D01*
X2024049Y3382848D01*
X2015972Y3389198D01*
X2008708Y3396462D01*
X2002358Y3404539D01*
X1997049Y3413328D01*
X1992833Y3422700D01*
X1989759Y3432505D01*
X1987931Y3442614D01*
X1987321Y3452876D01*
X1987931Y3463137D01*
X1989759Y3473246D01*
X1992833Y3483051D01*
X1997049Y3492423D01*
X2002358Y3501212D01*
X2008708Y3509314D01*
X2015972Y3516579D01*
X2024049Y3522903D01*
X2032863Y3528212D01*
X2042210Y3532428D01*
X2052040Y3535502D01*
X2062149Y3537356D01*
X2072233Y3537965D01*
X2232558Y3537965D01*
X2242642Y3537356D01*
X2252751Y3535502D01*
X2262555Y3532428D01*
X2271928Y3528212D01*
X2280742Y3522903D01*
X2288819Y3516579D01*
X2296083Y3509314D01*
X2302433Y3501212D01*
X2307716Y3492423D01*
X2311933Y3483051D01*
X2315032Y3473246D01*
X2316861Y3463137D01*
X2317470Y3452876D01*
X2316861Y3442614D01*
X2315032Y3432505D01*
X2311933Y3422700D01*
X2307716Y3413328D01*
X2302433Y3404539D01*
X2296083Y3396462D01*
X2288819Y3389198D01*
X2280742Y3382848D01*
X2271928Y3377539D01*
X2262555Y3373323D01*
X2252751Y3370249D01*
X2242642Y3368395D01*
X2232558Y3367811D01*
G37*
G36*
X2072233Y3113811D02*
G01*
X2062149Y3114395D01*
X2052040Y3116249D01*
X2042210Y3119323D01*
X2032863Y3123539D01*
X2024049Y3128848D01*
X2015972Y3135198D01*
X2008708Y3142462D01*
X2002358Y3150539D01*
X1997049Y3159328D01*
X1992833Y3168700D01*
X1989759Y3178505D01*
X1987931Y3188614D01*
X1987321Y3198876D01*
X1987931Y3209137D01*
X1989759Y3219246D01*
X1992833Y3229051D01*
X1997049Y3238423D01*
X2002358Y3247212D01*
X2008708Y3255314D01*
X2015972Y3262579D01*
X2024049Y3268903D01*
X2032863Y3274212D01*
X2042210Y3278428D01*
X2052040Y3281502D01*
X2062149Y3283356D01*
X2072233Y3283965D01*
X2232558Y3283965D01*
X2242642Y3283356D01*
X2252751Y3281502D01*
X2262555Y3278428D01*
X2271928Y3274212D01*
X2280742Y3268903D01*
X2288819Y3262579D01*
X2296083Y3255314D01*
X2302433Y3247212D01*
X2307716Y3238423D01*
X2311933Y3229051D01*
X2315032Y3219246D01*
X2316861Y3209137D01*
X2317470Y3198876D01*
X2316861Y3188614D01*
X2315032Y3178505D01*
X2311933Y3168700D01*
X2307716Y3159328D01*
X2302433Y3150539D01*
X2296083Y3142462D01*
X2288819Y3135198D01*
X2280742Y3128848D01*
X2271928Y3123539D01*
X2262555Y3119323D01*
X2252751Y3116249D01*
X2242642Y3114395D01*
X2232558Y3113811D01*
G37*
D14*
G01*
X2152395Y2944888D03*
G36*
X2072233Y2605811D02*
G01*
X2062149Y2606420D01*
X2052040Y2608249D01*
X2042210Y2611323D01*
X2032863Y2615539D01*
X2024049Y2620848D01*
X2015972Y2627198D01*
X2008708Y2634462D01*
X2002358Y2642539D01*
X1997049Y2651328D01*
X1992833Y2660700D01*
X1989759Y2670505D01*
X1987931Y2680639D01*
X1987321Y2690876D01*
X1987931Y2701137D01*
X1989759Y2711246D01*
X1992833Y2721051D01*
X1997049Y2730423D01*
X2002358Y2739212D01*
X2008708Y2747314D01*
X2015972Y2754579D01*
X2024049Y2760903D01*
X2032863Y2766212D01*
X2042210Y2770428D01*
X2052040Y2773502D01*
X2062149Y2775356D01*
X2072233Y2775965D01*
X2232558Y2775965D01*
X2242642Y2775356D01*
X2252751Y2773502D01*
X2262555Y2770428D01*
X2271928Y2766212D01*
X2280742Y2760903D01*
X2288819Y2754579D01*
X2296083Y2747314D01*
X2302433Y2739212D01*
X2307716Y2730423D01*
X2311933Y2721051D01*
X2315032Y2711246D01*
X2316861Y2701137D01*
X2317470Y2690876D01*
X2316861Y2680639D01*
X2315032Y2670505D01*
X2311933Y2660700D01*
X2307716Y2651328D01*
X2302433Y2642539D01*
X2296083Y2634462D01*
X2288819Y2627198D01*
X2280742Y2620848D01*
X2271928Y2615539D01*
X2262555Y2611323D01*
X2252751Y2608249D01*
X2242642Y2606420D01*
X2232558Y2605811D01*
G37*
G36*
X2072233Y2351811D02*
G01*
X2062149Y2352420D01*
X2052040Y2354249D01*
X2042210Y2357323D01*
X2032863Y2361539D01*
X2024049Y2366848D01*
X2015972Y2373198D01*
X2008708Y2380462D01*
X2002358Y2388539D01*
X1997049Y2397328D01*
X1992833Y2406700D01*
X1989759Y2416505D01*
X1987931Y2426639D01*
X1987321Y2436876D01*
X1987931Y2447137D01*
X1989759Y2457246D01*
X1992833Y2467051D01*
X1997049Y2476423D01*
X2002358Y2485212D01*
X2008708Y2493314D01*
X2015972Y2500579D01*
X2024049Y2506903D01*
X2032863Y2512212D01*
X2042210Y2516428D01*
X2052040Y2519502D01*
X2062149Y2521356D01*
X2072233Y2521965D01*
X2232558Y2521965D01*
X2242642Y2521356D01*
X2252751Y2519502D01*
X2262555Y2516428D01*
X2271928Y2512212D01*
X2280742Y2506903D01*
X2288819Y2500579D01*
X2296083Y2493314D01*
X2302433Y2485212D01*
X2307716Y2476423D01*
X2311933Y2467051D01*
X2315032Y2457246D01*
X2316861Y2447137D01*
X2317470Y2436876D01*
X2316861Y2426639D01*
X2315032Y2416505D01*
X2311933Y2406700D01*
X2307716Y2397328D01*
X2302433Y2388539D01*
X2296083Y2380462D01*
X2288819Y2373198D01*
X2280742Y2366848D01*
X2271928Y2361539D01*
X2262555Y2357323D01*
X2252751Y2354249D01*
X2242642Y2352420D01*
X2232558Y2351811D01*
G37*
G36*
X167233Y2351811D02*
G01*
X157149Y2352420D01*
X147040Y2354249D01*
X137236Y2357323D01*
X127863Y2361539D01*
X119049Y2366848D01*
X110972Y2373198D01*
X103708Y2380462D01*
X97358Y2388539D01*
X92075Y2397328D01*
X87858Y2406700D01*
X84759Y2416505D01*
X82930Y2426639D01*
X82321Y2436876D01*
X82930Y2447137D01*
X84759Y2457246D01*
X87858Y2467051D01*
X92075Y2476423D01*
X97358Y2485212D01*
X103708Y2493314D01*
X110972Y2500579D01*
X119049Y2506903D01*
X127863Y2512212D01*
X137236Y2516428D01*
X147040Y2519502D01*
X157149Y2521356D01*
X167233Y2521965D01*
X327558Y2521965D01*
X337642Y2521356D01*
X347751Y2519502D01*
X357581Y2516428D01*
X366928Y2512212D01*
X375742Y2506903D01*
X383819Y2500579D01*
X391083Y2493314D01*
X397433Y2485212D01*
X402742Y2476423D01*
X406958Y2467051D01*
X410032Y2457246D01*
X411861Y2447137D01*
X412470Y2436876D01*
X411861Y2426639D01*
X410032Y2416505D01*
X406958Y2406700D01*
X402742Y2397328D01*
X397433Y2388539D01*
X391083Y2380462D01*
X383819Y2373198D01*
X375742Y2366848D01*
X366928Y2361539D01*
X357581Y2357323D01*
X347751Y2354249D01*
X337642Y2352420D01*
X327558Y2351811D01*
G37*
G36*
X167233Y2605811D02*
G01*
X157149Y2606420D01*
X147040Y2608249D01*
X137236Y2611323D01*
X127863Y2615539D01*
X119049Y2620848D01*
X110972Y2627198D01*
X103708Y2634462D01*
X97358Y2642539D01*
X92075Y2651328D01*
X87858Y2660700D01*
X84759Y2670505D01*
X82930Y2680639D01*
X82321Y2690876D01*
X82930Y2701137D01*
X84759Y2711246D01*
X87858Y2721051D01*
X92075Y2730423D01*
X97358Y2739212D01*
X103708Y2747314D01*
X110972Y2754579D01*
X119049Y2760903D01*
X127863Y2766212D01*
X137236Y2770428D01*
X147040Y2773502D01*
X157149Y2775356D01*
X167233Y2775965D01*
X327558Y2775965D01*
X337642Y2775356D01*
X347751Y2773502D01*
X357581Y2770428D01*
X366928Y2766212D01*
X375742Y2760903D01*
X383819Y2754579D01*
X391083Y2747314D01*
X397433Y2739212D01*
X402742Y2730423D01*
X406958Y2721051D01*
X410032Y2711246D01*
X411861Y2701137D01*
X412470Y2690876D01*
X411861Y2680639D01*
X410032Y2670505D01*
X406958Y2660700D01*
X402742Y2651328D01*
X397433Y2642539D01*
X391083Y2634462D01*
X383819Y2627198D01*
X375742Y2620848D01*
X366928Y2615539D01*
X357581Y2611323D01*
X347751Y2608249D01*
X337642Y2606420D01*
X327558Y2605811D01*
G37*
G01*
X247396Y2944888D03*
G36*
X167233Y3113811D02*
G01*
X157149Y3114395D01*
X147040Y3116249D01*
X137236Y3119323D01*
X127863Y3123539D01*
X119049Y3128848D01*
X110972Y3135198D01*
X103708Y3142462D01*
X97358Y3150539D01*
X92075Y3159328D01*
X87858Y3168700D01*
X84759Y3178505D01*
X82930Y3188614D01*
X82321Y3198876D01*
X82930Y3209137D01*
X84759Y3219246D01*
X87858Y3229051D01*
X92075Y3238423D01*
X97358Y3247212D01*
X103708Y3255314D01*
X110972Y3262579D01*
X119049Y3268903D01*
X127863Y3274212D01*
X137236Y3278428D01*
X147040Y3281502D01*
X157149Y3283356D01*
X167233Y3283965D01*
X327558Y3283965D01*
X337642Y3283356D01*
X347751Y3281502D01*
X357581Y3278428D01*
X366928Y3274212D01*
X375742Y3268903D01*
X383819Y3262579D01*
X391083Y3255314D01*
X397433Y3247212D01*
X402742Y3238423D01*
X406958Y3229051D01*
X410032Y3219246D01*
X411861Y3209137D01*
X412470Y3198876D01*
X411861Y3188614D01*
X410032Y3178505D01*
X406958Y3168700D01*
X402742Y3159328D01*
X397433Y3150539D01*
X391083Y3142462D01*
X383819Y3135198D01*
X375742Y3128848D01*
X366928Y3123539D01*
X357581Y3119323D01*
X347751Y3116249D01*
X337642Y3114395D01*
X327558Y3113811D01*
G37*
G36*
X167233Y3367811D02*
G01*
X157149Y3368395D01*
X147040Y3370249D01*
X137236Y3373323D01*
X127863Y3377539D01*
X119049Y3382848D01*
X110972Y3389198D01*
X103708Y3396462D01*
X97358Y3404539D01*
X92075Y3413328D01*
X87858Y3422700D01*
X84759Y3432505D01*
X82930Y3442614D01*
X82321Y3452876D01*
X82930Y3463137D01*
X84759Y3473246D01*
X87858Y3483051D01*
X92075Y3492423D01*
X97358Y3501212D01*
X103708Y3509314D01*
X110972Y3516579D01*
X119049Y3522903D01*
X127863Y3528212D01*
X137236Y3532428D01*
X147040Y3535502D01*
X157149Y3537356D01*
X167233Y3537965D01*
X327558Y3537965D01*
X337642Y3537356D01*
X347751Y3535502D01*
X357581Y3532428D01*
X366928Y3528212D01*
X375742Y3522903D01*
X383819Y3516579D01*
X391083Y3509314D01*
X397433Y3501212D01*
X402742Y3492423D01*
X406958Y3483051D01*
X410032Y3473246D01*
X411861Y3463137D01*
X412470Y3452876D01*
X411861Y3442614D01*
X410032Y3432505D01*
X406958Y3422700D01*
X402742Y3413328D01*
X397433Y3404539D01*
X391083Y3396462D01*
X383819Y3389198D01*
X375742Y3382848D01*
X366928Y3377539D01*
X357581Y3373323D01*
X347751Y3370249D01*
X337642Y3368395D01*
X327558Y3367811D01*
G37*
G36*
X167233Y3621786D02*
G01*
X157149Y3622395D01*
X147040Y3624249D01*
X137236Y3627323D01*
X127863Y3631539D01*
X119049Y3636848D01*
X110972Y3643198D01*
X103708Y3650462D01*
X97358Y3658539D01*
X92075Y3667328D01*
X87858Y3676700D01*
X84759Y3686505D01*
X82930Y3696614D01*
X82321Y3706876D01*
X82930Y3717137D01*
X84759Y3727246D01*
X87858Y3737051D01*
X92075Y3746423D01*
X97358Y3755212D01*
X103708Y3763314D01*
X110972Y3770579D01*
X119049Y3776903D01*
X127863Y3782212D01*
X137236Y3786428D01*
X147040Y3789502D01*
X157149Y3791356D01*
X167233Y3791965D01*
X327558Y3791965D01*
X337642Y3791356D01*
X347751Y3789502D01*
X357581Y3786428D01*
X366928Y3782212D01*
X375742Y3776903D01*
X383819Y3770579D01*
X391083Y3763314D01*
X397433Y3755212D01*
X402742Y3746423D01*
X406958Y3737051D01*
X410032Y3727246D01*
X411861Y3717137D01*
X412470Y3706876D01*
X411861Y3696614D01*
X410032Y3686505D01*
X406958Y3676700D01*
X402742Y3667328D01*
X397433Y3658539D01*
X391083Y3650462D01*
X383819Y3643198D01*
X375742Y3636848D01*
X366928Y3631539D01*
X357581Y3627323D01*
X347751Y3624249D01*
X337642Y3622395D01*
X327558Y3621786D01*
G37*
G36*
X167233Y3875786D02*
G01*
X157149Y3876395D01*
X147040Y3878249D01*
X137236Y3881323D01*
X127863Y3885539D01*
X119049Y3890848D01*
X110972Y3897198D01*
X103708Y3904437D01*
X97358Y3912539D01*
X92075Y3921328D01*
X87858Y3930700D01*
X84759Y3940505D01*
X82930Y3950614D01*
X82321Y3960876D01*
X82930Y3971137D01*
X84759Y3981246D01*
X87858Y3991051D01*
X92075Y4000423D01*
X97358Y4009212D01*
X103708Y4017314D01*
X110972Y4024579D01*
X119049Y4030903D01*
X127863Y4036212D01*
X137236Y4040428D01*
X147040Y4043502D01*
X157149Y4045356D01*
X167233Y4045965D01*
X327558Y4045965D01*
X337642Y4045356D01*
X347751Y4043502D01*
X357581Y4040428D01*
X366928Y4036212D01*
X375742Y4030903D01*
X383819Y4024579D01*
X391083Y4017314D01*
X397433Y4009212D01*
X402742Y4000423D01*
X406958Y3991051D01*
X410032Y3981246D01*
X411861Y3971137D01*
X412470Y3960876D01*
X411861Y3950614D01*
X410032Y3940505D01*
X406958Y3930700D01*
X402742Y3921328D01*
X397433Y3912539D01*
X391083Y3904437D01*
X383819Y3897198D01*
X375742Y3890848D01*
X366928Y3885539D01*
X357581Y3881323D01*
X347751Y3878249D01*
X337642Y3876395D01*
X327558Y3875786D01*
G37*
D15*
G01*
X247396Y4214876D03*
G36*
X167233Y4383786D02*
G01*
X157149Y4384395D01*
X147040Y4386249D01*
X137236Y4389323D01*
X127863Y4393539D01*
X119049Y4398848D01*
X110972Y4405198D01*
X103708Y4412437D01*
X97358Y4420539D01*
X92075Y4429328D01*
X87858Y4438700D01*
X84759Y4448505D01*
X82930Y4458614D01*
X82321Y4468876D01*
X82930Y4479137D01*
X84759Y4489246D01*
X87858Y4499051D01*
X92075Y4508423D01*
X97358Y4517212D01*
X103708Y4525314D01*
X110972Y4532579D01*
X119049Y4538903D01*
X127863Y4544212D01*
X137236Y4548428D01*
X147040Y4551502D01*
X157149Y4553356D01*
X167233Y4553965D01*
X327558Y4553965D01*
X337642Y4553356D01*
X347751Y4551502D01*
X357581Y4548428D01*
X366928Y4544212D01*
X375742Y4538903D01*
X383819Y4532579D01*
X391083Y4525314D01*
X397433Y4517212D01*
X402742Y4508423D01*
X406958Y4499051D01*
X410032Y4489246D01*
X411861Y4479137D01*
X412470Y4468876D01*
X411861Y4458614D01*
X410032Y4448505D01*
X406958Y4438700D01*
X402742Y4429328D01*
X397433Y4420539D01*
X391083Y4412437D01*
X383819Y4405198D01*
X375742Y4398848D01*
X366928Y4393539D01*
X357581Y4389323D01*
X347751Y4386249D01*
X337642Y4384395D01*
X327558Y4383786D01*
G37*
G36*
X167233Y4637786D02*
G01*
X157149Y4638395D01*
X147040Y4640249D01*
X137236Y4643323D01*
X127863Y4647539D01*
X119049Y4652848D01*
X110972Y4659198D01*
X103708Y4666437D01*
X97358Y4674539D01*
X92075Y4683328D01*
X87858Y4692700D01*
X84759Y4702505D01*
X82930Y4712614D01*
X82321Y4722876D01*
X82930Y4733137D01*
X84759Y4743246D01*
X87858Y4753051D01*
X92075Y4762423D01*
X97358Y4771212D01*
X103708Y4779314D01*
X110972Y4786579D01*
X119049Y4792903D01*
X127863Y4798212D01*
X137236Y4802428D01*
X147040Y4805502D01*
X157149Y4807356D01*
X167233Y4807965D01*
X327558Y4807965D01*
X337642Y4807356D01*
X347751Y4805502D01*
X357581Y4802428D01*
X366928Y4798212D01*
X375742Y4792903D01*
X383819Y4786579D01*
X391083Y4779314D01*
X397433Y4771212D01*
X402742Y4762423D01*
X406958Y4753051D01*
X410032Y4743246D01*
X411861Y4733137D01*
X412470Y4722876D01*
X411861Y4712614D01*
X410032Y4702505D01*
X406958Y4692700D01*
X402742Y4683328D01*
X397433Y4674539D01*
X391083Y4666437D01*
X383819Y4659198D01*
X375742Y4652848D01*
X366928Y4647539D01*
X357581Y4643323D01*
X347751Y4640249D01*
X337642Y4638395D01*
X327558Y4637786D01*
G37*
G36*
X167233Y4891786D02*
G01*
X157149Y4892395D01*
X147040Y4894249D01*
X137236Y4897323D01*
X127863Y4901539D01*
X119049Y4906848D01*
X110972Y4913172D01*
X103708Y4920437D01*
X97358Y4928539D01*
X92075Y4937328D01*
X87858Y4946700D01*
X84759Y4956505D01*
X82930Y4966614D01*
X82321Y4976876D01*
X82930Y4987137D01*
X84759Y4997246D01*
X87858Y5007051D01*
X92075Y5016423D01*
X97358Y5025212D01*
X103708Y5033314D01*
X110972Y5040553D01*
X119049Y5046903D01*
X127863Y5052212D01*
X137236Y5056428D01*
X147040Y5059502D01*
X157149Y5061356D01*
X167233Y5061965D01*
X327558Y5061965D01*
X337642Y5061356D01*
X347751Y5059502D01*
X357581Y5056428D01*
X366928Y5052212D01*
X375742Y5046903D01*
X383819Y5040553D01*
X391083Y5033314D01*
X397433Y5025212D01*
X402742Y5016423D01*
X406958Y5007051D01*
X410032Y4997246D01*
X411861Y4987137D01*
X412470Y4976876D01*
X411861Y4966614D01*
X410032Y4956505D01*
X406958Y4946700D01*
X402742Y4937328D01*
X397433Y4928539D01*
X391083Y4920437D01*
X383819Y4913172D01*
X375742Y4906848D01*
X366928Y4901539D01*
X357581Y4897323D01*
X347751Y4894249D01*
X337642Y4892395D01*
X327558Y4891786D01*
G37*
G36*
X167233Y5145786D02*
G01*
X157149Y5146395D01*
X147040Y5148249D01*
X137236Y5151323D01*
X127863Y5155539D01*
X119049Y5160848D01*
X110972Y5167172D01*
X103708Y5174437D01*
X97358Y5182539D01*
X92075Y5191328D01*
X87858Y5200700D01*
X84759Y5210505D01*
X82930Y5220614D01*
X82321Y5230876D01*
X82930Y5241137D01*
X84759Y5251246D01*
X87858Y5261051D01*
X92075Y5270423D01*
X97358Y5279212D01*
X103708Y5287314D01*
X110972Y5294553D01*
X119049Y5300903D01*
X127863Y5306212D01*
X137236Y5310428D01*
X147040Y5313502D01*
X157149Y5315356D01*
X167233Y5315965D01*
X327558Y5315965D01*
X337642Y5315356D01*
X347751Y5313502D01*
X357581Y5310428D01*
X366928Y5306212D01*
X375742Y5300903D01*
X383819Y5294553D01*
X391083Y5287314D01*
X397433Y5279212D01*
X402742Y5270423D01*
X406958Y5261051D01*
X410032Y5251246D01*
X411861Y5241137D01*
X412470Y5230876D01*
X411861Y5220614D01*
X410032Y5210505D01*
X406958Y5200700D01*
X402742Y5191328D01*
X397433Y5182539D01*
X391083Y5174437D01*
X383819Y5167172D01*
X375742Y5160848D01*
X366928Y5155539D01*
X357581Y5151323D01*
X347751Y5148249D01*
X337642Y5146395D01*
X327558Y5145786D01*
G37*
G01*
X247396Y5484876D03*
G36*
X167233Y5653786D02*
G01*
X157149Y5654395D01*
X147040Y5656249D01*
X137236Y5659323D01*
X127863Y5663539D01*
X119049Y5668848D01*
X110972Y5675172D01*
X103708Y5682437D01*
X97358Y5690539D01*
X92075Y5699328D01*
X87858Y5708700D01*
X84759Y5718505D01*
X82930Y5728614D01*
X82321Y5738876D01*
X82930Y5749137D01*
X84759Y5759246D01*
X87858Y5769051D01*
X92075Y5778423D01*
X97358Y5787212D01*
X103708Y5795314D01*
X110972Y5802553D01*
X119049Y5808903D01*
X127863Y5814212D01*
X137236Y5818428D01*
X147040Y5821502D01*
X157149Y5823356D01*
X167233Y5823965D01*
X327558Y5823965D01*
X337642Y5823356D01*
X347751Y5821502D01*
X357581Y5818428D01*
X366928Y5814212D01*
X375742Y5808903D01*
X383819Y5802553D01*
X391083Y5795314D01*
X397433Y5787212D01*
X402742Y5778423D01*
X406958Y5769051D01*
X410032Y5759246D01*
X411861Y5749137D01*
X412470Y5738876D01*
X411861Y5728614D01*
X410032Y5718505D01*
X406958Y5708700D01*
X402742Y5699328D01*
X397433Y5690539D01*
X391083Y5682437D01*
X383819Y5675172D01*
X375742Y5668848D01*
X366928Y5663539D01*
X357581Y5659323D01*
X347751Y5656249D01*
X337642Y5654395D01*
X327558Y5653786D01*
G37*
G36*
X167233Y5907786D02*
G01*
X157149Y5908395D01*
X147040Y5910249D01*
X137236Y5913323D01*
X127863Y5917539D01*
X119049Y5922848D01*
X110972Y5929172D01*
X103708Y5936437D01*
X97358Y5944539D01*
X92075Y5953328D01*
X87858Y5962700D01*
X84759Y5972505D01*
X82930Y5982614D01*
X82321Y5992876D01*
X82930Y6003137D01*
X84759Y6013246D01*
X87858Y6023051D01*
X92075Y6032423D01*
X97358Y6041212D01*
X103708Y6049289D01*
X110972Y6056553D01*
X119049Y6062903D01*
X127863Y6068212D01*
X137236Y6072428D01*
X147040Y6075502D01*
X157149Y6077356D01*
X167233Y6077965D01*
X327558Y6077965D01*
X337642Y6077356D01*
X347751Y6075502D01*
X357581Y6072428D01*
X366928Y6068212D01*
X375742Y6062903D01*
X383819Y6056553D01*
X391083Y6049289D01*
X397433Y6041212D01*
X402742Y6032423D01*
X406958Y6023051D01*
X410032Y6013246D01*
X411861Y6003137D01*
X412470Y5992876D01*
X411861Y5982614D01*
X410032Y5972505D01*
X406958Y5962700D01*
X402742Y5953328D01*
X397433Y5944539D01*
X391083Y5936437D01*
X383819Y5929172D01*
X375742Y5922848D01*
X366928Y5917539D01*
X357581Y5913323D01*
X347751Y5910249D01*
X337642Y5908395D01*
X327558Y5907786D01*
G37*
G36*
X167233Y6161786D02*
G01*
X157149Y6162395D01*
X147040Y6164249D01*
X137236Y6167323D01*
X127863Y6171539D01*
X119049Y6176848D01*
X110972Y6183172D01*
X103708Y6190437D01*
X97358Y6198539D01*
X92075Y6207328D01*
X87858Y6216700D01*
X84759Y6226505D01*
X82930Y6236614D01*
X82321Y6246876D01*
X82930Y6257137D01*
X84759Y6267246D01*
X87858Y6277051D01*
X92075Y6286423D01*
X97358Y6295212D01*
X103708Y6303289D01*
X110972Y6310553D01*
X119049Y6316903D01*
X127863Y6322212D01*
X137236Y6326428D01*
X147040Y6329502D01*
X157149Y6331356D01*
X167233Y6331940D01*
X327558Y6331940D01*
X337642Y6331356D01*
X347751Y6329502D01*
X357581Y6326428D01*
X366928Y6322212D01*
X375742Y6316903D01*
X383819Y6310553D01*
X391083Y6303289D01*
X397433Y6295212D01*
X402742Y6286423D01*
X406958Y6277051D01*
X410032Y6267246D01*
X411861Y6257137D01*
X412470Y6246876D01*
X411861Y6236614D01*
X410032Y6226505D01*
X406958Y6216700D01*
X402742Y6207328D01*
X397433Y6198539D01*
X391083Y6190437D01*
X383819Y6183172D01*
X375742Y6176848D01*
X366928Y6171539D01*
X357581Y6167323D01*
X347751Y6164249D01*
X337642Y6162395D01*
X327558Y6161786D01*
G37*
G36*
X167233Y6415786D02*
G01*
X157149Y6416395D01*
X147040Y6418249D01*
X137236Y6421323D01*
X127863Y6425539D01*
X119049Y6430848D01*
X110972Y6437172D01*
X103708Y6444437D01*
X97358Y6452539D01*
X92075Y6461328D01*
X87858Y6470700D01*
X84759Y6480505D01*
X82930Y6490614D01*
X82321Y6500876D01*
X82930Y6511137D01*
X84759Y6521246D01*
X87858Y6531051D01*
X92075Y6540423D01*
X97358Y6549212D01*
X103708Y6557289D01*
X110972Y6564553D01*
X119049Y6570903D01*
X127863Y6576212D01*
X137236Y6580428D01*
X147040Y6583502D01*
X157149Y6585356D01*
X167233Y6585940D01*
X327558Y6585940D01*
X337642Y6585356D01*
X347751Y6583502D01*
X357581Y6580428D01*
X366928Y6576212D01*
X375742Y6570903D01*
X383819Y6564553D01*
X391083Y6557289D01*
X397433Y6549212D01*
X402742Y6540423D01*
X406958Y6531051D01*
X410032Y6521246D01*
X411861Y6511137D01*
X412470Y6500876D01*
X411861Y6490614D01*
X410032Y6480505D01*
X406958Y6470700D01*
X402742Y6461328D01*
X397433Y6452539D01*
X391083Y6444437D01*
X383819Y6437172D01*
X375742Y6430848D01*
X366928Y6425539D01*
X357581Y6421323D01*
X347751Y6418249D01*
X337642Y6416395D01*
X327558Y6415786D01*
G37*
D14*
G01*
X247396Y6754863D03*
G36*
X167233Y6923786D02*
G01*
X157149Y6924395D01*
X147040Y6926249D01*
X137236Y6929323D01*
X127863Y6933539D01*
X119049Y6938848D01*
X110972Y6945172D01*
X103708Y6952437D01*
X97358Y6960539D01*
X92075Y6969328D01*
X87858Y6978700D01*
X84759Y6988505D01*
X82930Y6998614D01*
X82321Y7008876D01*
X82930Y7019112D01*
X84759Y7029246D01*
X87858Y7039051D01*
X92075Y7048423D01*
X97358Y7057212D01*
X103708Y7065289D01*
X110972Y7072553D01*
X119049Y7078903D01*
X127863Y7084212D01*
X137236Y7088428D01*
X147040Y7091502D01*
X157149Y7093330D01*
X167233Y7093940D01*
X327558Y7093940D01*
X337642Y7093330D01*
X347751Y7091502D01*
X357581Y7088428D01*
X366928Y7084212D01*
X375742Y7078903D01*
X383819Y7072553D01*
X391083Y7065289D01*
X397433Y7057212D01*
X402742Y7048423D01*
X406958Y7039051D01*
X410032Y7029246D01*
X411861Y7019112D01*
X412470Y7008876D01*
X411861Y6998614D01*
X410032Y6988505D01*
X406958Y6978700D01*
X402742Y6969328D01*
X397433Y6960539D01*
X391083Y6952437D01*
X383819Y6945172D01*
X375742Y6938848D01*
X366928Y6933539D01*
X357581Y6929323D01*
X347751Y6926249D01*
X337642Y6924395D01*
X327558Y6923786D01*
G37*
G36*
X167233Y7177786D02*
G01*
X157149Y7178395D01*
X147040Y7180249D01*
X137236Y7183323D01*
X127863Y7187539D01*
X119049Y7192848D01*
X110972Y7199172D01*
X103708Y7206437D01*
X97358Y7214539D01*
X92075Y7223328D01*
X87858Y7232700D01*
X84759Y7242505D01*
X82930Y7252614D01*
X82321Y7262876D01*
X82930Y7273112D01*
X84759Y7283246D01*
X87858Y7293051D01*
X92075Y7302423D01*
X97358Y7311212D01*
X103708Y7319289D01*
X110972Y7326553D01*
X119049Y7332903D01*
X127863Y7338212D01*
X137236Y7342428D01*
X147040Y7345502D01*
X157149Y7347330D01*
X167233Y7347940D01*
X327558Y7347940D01*
X337642Y7347330D01*
X347751Y7345502D01*
X357581Y7342428D01*
X366928Y7338212D01*
X375742Y7332903D01*
X383819Y7326553D01*
X391083Y7319289D01*
X397433Y7311212D01*
X402742Y7302423D01*
X406958Y7293051D01*
X410032Y7283246D01*
X411861Y7273112D01*
X412470Y7262876D01*
X411861Y7252614D01*
X410032Y7242505D01*
X406958Y7232700D01*
X402742Y7223328D01*
X397433Y7214539D01*
X391083Y7206437D01*
X383819Y7199172D01*
X375742Y7192848D01*
X366928Y7187539D01*
X357581Y7183323D01*
X347751Y7180249D01*
X337642Y7178395D01*
X327558Y7177786D01*
G37*
G36*
X1199895Y2271801D02*
G01*
X1189634Y2272411D01*
X1179525Y2274265D01*
X1169720Y2277338D01*
X1160348Y2281554D01*
X1151559Y2286863D01*
X1143457Y2293188D01*
X1136192Y2300452D01*
X1129868Y2308529D01*
X1124559Y2317343D01*
X1120343Y2326716D01*
X1117269Y2336520D01*
X1115415Y2346629D01*
X1114805Y2356738D01*
X1114805Y2517038D01*
X1115415Y2527122D01*
X1117269Y2537256D01*
X1120343Y2547061D01*
X1124559Y2556408D01*
X1129868Y2565222D01*
X1136192Y2573299D01*
X1143457Y2580563D01*
X1151559Y2586913D01*
X1160348Y2592222D01*
X1169720Y2596438D01*
X1179525Y2599512D01*
X1189634Y2601340D01*
X1199895Y2601950D01*
X1210157Y2601340D01*
X1220266Y2599512D01*
X1230071Y2596438D01*
X1239443Y2592222D01*
X1248232Y2586913D01*
X1256334Y2580563D01*
X1263599Y2573299D01*
X1269923Y2565222D01*
X1275232Y2556408D01*
X1279448Y2547061D01*
X1282522Y2537256D01*
X1284376Y2527122D01*
X1284986Y2517038D01*
X1284986Y2356738D01*
X1284376Y2346629D01*
X1282522Y2336520D01*
X1279448Y2326716D01*
X1275232Y2317343D01*
X1269923Y2308529D01*
X1263599Y2300452D01*
X1256334Y2293188D01*
X1248232Y2286863D01*
X1239443Y2281554D01*
X1230071Y2277338D01*
X1220266Y2274265D01*
X1210157Y2272411D01*
G37*
G36*
X945895Y2271801D02*
G01*
X935634Y2272411D01*
X925525Y2274265D01*
X915720Y2277338D01*
X906348Y2281554D01*
X897559Y2286863D01*
X889457Y2293188D01*
X882218Y2300452D01*
X875868Y2308529D01*
X870559Y2317343D01*
X866343Y2326716D01*
X863269Y2336520D01*
X861415Y2346629D01*
X860805Y2356738D01*
X860805Y2517038D01*
X861415Y2527122D01*
X863269Y2537256D01*
X866343Y2547061D01*
X870559Y2556408D01*
X875868Y2565222D01*
X882218Y2573299D01*
X889457Y2580563D01*
X897559Y2586913D01*
X906348Y2592222D01*
X915720Y2596438D01*
X925525Y2599512D01*
X935634Y2601340D01*
X945895Y2601950D01*
X956157Y2601340D01*
X966266Y2599512D01*
X976071Y2596438D01*
X985443Y2592222D01*
X994232Y2586913D01*
X1002334Y2580563D01*
X1009599Y2573299D01*
X1015923Y2565222D01*
X1021232Y2556408D01*
X1025448Y2547061D01*
X1028522Y2537256D01*
X1030376Y2527122D01*
X1030986Y2517038D01*
X1030986Y2356738D01*
X1030376Y2346629D01*
X1028522Y2336520D01*
X1025448Y2326716D01*
X1021232Y2317343D01*
X1015923Y2308529D01*
X1009599Y2300452D01*
X1002334Y2293188D01*
X994232Y2286863D01*
X985443Y2281554D01*
X976071Y2277338D01*
X966266Y2274265D01*
X956157Y2272411D01*
G37*
G36*
X1453895Y2271801D02*
G01*
X1443634Y2272411D01*
X1433525Y2274265D01*
X1423720Y2277338D01*
X1414348Y2281554D01*
X1405559Y2286863D01*
X1397457Y2293188D01*
X1390192Y2300452D01*
X1383868Y2308529D01*
X1378559Y2317343D01*
X1374343Y2326716D01*
X1371269Y2336520D01*
X1369415Y2346629D01*
X1368805Y2356738D01*
X1368805Y2517038D01*
X1369415Y2527122D01*
X1371269Y2537256D01*
X1374343Y2547061D01*
X1378559Y2556408D01*
X1383868Y2565222D01*
X1390192Y2573299D01*
X1397457Y2580563D01*
X1405559Y2586913D01*
X1414348Y2592222D01*
X1423720Y2596438D01*
X1433525Y2599512D01*
X1443634Y2601340D01*
X1453895Y2601950D01*
X1464157Y2601340D01*
X1474266Y2599512D01*
X1484071Y2596438D01*
X1493443Y2592222D01*
X1502232Y2586913D01*
X1510334Y2580563D01*
X1517573Y2573299D01*
X1523923Y2565222D01*
X1529232Y2556408D01*
X1533448Y2547061D01*
X1536522Y2537256D01*
X1538376Y2527122D01*
X1538986Y2517038D01*
X1538986Y2356738D01*
X1538376Y2346629D01*
X1536522Y2336520D01*
X1533448Y2326716D01*
X1529232Y2317343D01*
X1523923Y2308529D01*
X1517573Y2300452D01*
X1510334Y2293188D01*
X1502232Y2286863D01*
X1493443Y2281554D01*
X1484071Y2277338D01*
X1474266Y2274265D01*
X1464157Y2272411D01*
G37*
D16*
G01*
X247395Y7262876D03*
G01*
X247395Y7008876D03*
G01*
X247395Y6754876D03*
G01*
X247395Y6500876D03*
G01*
X247395Y6246876D03*
G01*
X247395Y5992876D03*
G01*
X247395Y5738876D03*
G01*
X247395Y5484876D03*
G01*
X247395Y5230876D03*
G01*
X247395Y4976876D03*
G01*
X247395Y4722876D03*
G01*
X247395Y4468876D03*
G01*
X247395Y4214876D03*
G01*
X247395Y3960876D03*
G01*
X247395Y3706876D03*
G01*
X247395Y3452876D03*
G01*
X247395Y3198876D03*
G01*
X247395Y2944876D03*
G01*
X247395Y2690876D03*
G01*
X247395Y2436876D03*
G01*
X945895Y2436876D03*
G01*
X1199895Y2436876D03*
G01*
X1453895Y2436876D03*
G01*
X2152395Y2436876D03*
G01*
X2152395Y2690876D03*
G01*
X2152395Y2944876D03*
G01*
X2152395Y3198876D03*
G01*
X2152395Y3452876D03*
G01*
X2152395Y3706876D03*
G01*
X2152395Y3960876D03*
G01*
X2152395Y4214876D03*
G01*
X2152395Y4468876D03*
G01*
X2152395Y4722876D03*
G01*
X2152395Y4976876D03*
G01*
X2152395Y5230876D03*
G01*
X2152395Y5484876D03*
G01*
X2152395Y5738876D03*
G01*
X2152395Y5992876D03*
G01*
X2152395Y6246876D03*
G01*
X2152395Y6500876D03*
G01*
X2152395Y6754876D03*
G01*
X2152395Y7008876D03*
G01*
X2152395Y7262876D03*
D17*
G01*
X550011Y9635464D03*
G01*
X1850009Y9635464D03*
D18*
G01*
X1075004Y9364471D03*
G01*
X1325016Y9364471D03*
G01*
X1325016Y9164472D03*
G01*
X1075004Y9164472D03*
D10*
G01*
X545000Y1124999D03*
G01*
X405000Y1124999D03*
D19*
G01*
X1326996Y324998D03*
D20*
G01*
X1072997Y324993D03*
D21*
G01*
X1274846Y1149992D03*
G01*
X1224846Y1149995D03*
G01*
X1174846Y1149992D03*
G01*
X1124846Y1149992D03*
D22*
G01*
X1050010Y1074801D03*
G01*
X1050010Y1024788D03*
G01*
X1050010Y974801D03*
G01*
X1050010Y924788D03*
D23*
G01*
X1124999Y849998D03*
G01*
X1174998Y849998D03*
G01*
X1224998Y849998D03*
G01*
X1274846Y849995D03*
D24*
G01*
X1349997Y924791D03*
G01*
X1349999Y974791D03*
G01*
X1349997Y1024790D03*
G01*
X1349997Y1074790D03*
D25*
G01*
X1199997Y999997D03*
D26*
G01*
X1069896Y8227628D03*
G01*
X1134894Y8227628D03*
G01*
X1199896Y8227628D03*
G01*
X1264894Y8227628D03*
G01*
X1329895Y8227628D03*
D27*
G01*
X1609902Y7772120D03*
G01*
X789889Y7772120D03*
D28*
G01*
X1609902Y8177123D03*
G01*
X789889Y8177123D03*
M02*
