G04 Layer: BottomSolderMaskLayer*
G04 EasyEDA v6.5.40, 2024-10-05 13:30:00*
G04 a67cddfb3fce44daa9051d46cbbcc19f,10*
G04 Gerber Generator version 0.2*
G04 Scale: 100 percent, Rotated: No, Reflected: No *
G04 Dimensions in millimeters *
G04 leading zeros omitted , absolute positions ,4 integer and 5 decimal *
%FSLAX45Y45*%
%MOMM*%

%AMMACRO1*1,1,$1,$2,$3*1,1,$1,$4,$5*1,1,$1,0-$2,0-$3*1,1,$1,0-$4,0-$5*20,1,$1,$2,$3,$4,$5,0*20,1,$1,$4,$5,0-$2,0-$3,0*20,1,$1,0-$2,0-$3,0-$4,0-$5,0*20,1,$1,0-$4,0-$5,$2,$3,0*4,1,4,$2,$3,$4,$5,0-$2,0-$3,0-$4,0-$5,$2,$3,0*%
%ADD10MACRO1,0.1016X0.7874X0.7874X0.7874X-0.7874*%
%ADD11C,1.6764*%
%ADD12MACRO1,0.1016X0.7874X-0.7874X-0.7874X-0.7874*%
%ADD13C,1.5240*%
%ADD14O,1.1015979999999999X3.6015930000000003*%
%ADD15C,1.7016*%
%ADD16MACRO1,0.1016X0.85X-0.7874X-0.85X-0.7874*%
%ADD17C,1.8016*%
%ADD18O,1.2015978000000003X2.5015952*%
%ADD19O,1.2015978000000003X2.9015944*%

%LPD*%
D10*
G01*
X547999Y2049995D03*
D11*
G01*
X802004Y2049983D03*
D12*
G01*
X1053998Y1699996D03*
D11*
G01*
X799998Y1699996D03*
G01*
X545998Y1699996D03*
D13*
G01*
X247395Y7262876D03*
G01*
X247395Y7008876D03*
G01*
X247395Y6754876D03*
G01*
X247395Y6500876D03*
G01*
X247395Y6246876D03*
G01*
X247395Y5992876D03*
G01*
X247395Y5738876D03*
G01*
X247395Y5484876D03*
G01*
X247395Y5230876D03*
G01*
X247395Y4976876D03*
G01*
X247395Y4722876D03*
G01*
X247395Y4468876D03*
G01*
X247395Y4214876D03*
G01*
X247395Y3960876D03*
G01*
X247395Y3706876D03*
G01*
X247395Y3452876D03*
G01*
X247395Y3198876D03*
G01*
X247395Y2944876D03*
G01*
X247395Y2690876D03*
G01*
X247395Y2436876D03*
G01*
X945895Y2436876D03*
G01*
X1199895Y2436876D03*
G01*
X1453895Y2436876D03*
G01*
X2152395Y2436876D03*
G01*
X2152395Y2690876D03*
G01*
X2152395Y2944876D03*
G01*
X2152395Y3198876D03*
G01*
X2152395Y3452876D03*
G01*
X2152395Y3706876D03*
G01*
X2152395Y3960876D03*
G01*
X2152395Y4214876D03*
G01*
X2152395Y4468876D03*
G01*
X2152395Y4722876D03*
G01*
X2152395Y4976876D03*
G01*
X2152395Y5230876D03*
G01*
X2152395Y5484876D03*
G01*
X2152395Y5738876D03*
G01*
X2152395Y5992876D03*
G01*
X2152395Y6246876D03*
G01*
X2152395Y6500876D03*
G01*
X2152395Y6754876D03*
G01*
X2152395Y7008876D03*
G01*
X2152395Y7262876D03*
D14*
G01*
X550011Y9635464D03*
G01*
X1850009Y9635464D03*
D15*
G01*
X1075004Y9364471D03*
G01*
X1325016Y9364471D03*
G01*
X1325016Y9164472D03*
G01*
X1075004Y9164472D03*
D16*
G01*
X1326996Y324998D03*
D17*
G01*
X1072997Y324993D03*
D18*
G01*
X1609902Y7772120D03*
G01*
X789889Y7772120D03*
D19*
G01*
X1609902Y8177123D03*
G01*
X789889Y8177123D03*
M02*
